{
	"asset":{
		"generator":"Khronos glTF Blender I/O v4.3.47",
		"version":"2.0"
	},
	"scene":0,
	"scenes":[
		{
			"name":"Scene",
			"nodes":[
				0
			]
		}
	],
	"nodes":[
		{
			"mesh":0,
			"name":"1",
			"scale":[
				0.0028250953182578087,
				0.0028250953182578087,
				0.0028250953182578087
			],
			"translation":[
				-1.1760385036468506,
				0,
				1.0319124460220337
			]
		}
	],
	"materials":[
		{
			"doubleSided":true,
			"name":"Material.001",
			"pbrMetallicRoughness":{
				"baseColorFactor":[
					0.0013185242423787713,
					0.0013185242423787713,
					0.0013185242423787713,
					1
				],
				"metallicFactor":0,
				"roughnessFactor":0.5
			}
		},
		{
			"doubleSided":true,
			"name":"Material.002",
			"pbrMetallicRoughness":{
				"baseColorFactor":[
					0.36984026432037354,
					0.36984026432037354,
					0.36984026432037354,
					1
				],
				"metallicFactor":0,
				"roughnessFactor":0.5
			}
		}
	],
	"meshes":[
		{
			"name":"18200-RAA-0000_08",
			"primitives":[
				{
					"attributes":{
						"POSITION":0,
						"NORMAL":1,
						"TEXCOORD_0":2
					},
					"indices":3,
					"material":0
				},
				{
					"attributes":{
						"POSITION":4,
						"NORMAL":5,
						"TEXCOORD_0":6
					},
					"indices":7,
					"material":1
				}
			]
		}
	],
	"accessors":[
		{
			"bufferView":0,
			"componentType":5126,
			"count":162278,
			"max":[
				1200.339599609375,
				433.24444580078125,
				-8.711397171020508
			],
			"min":[
				2.3052096366882324,
				15.385091781616211,
				-468.8936767578125
			],
			"type":"VEC3"
		},
		{
			"bufferView":1,
			"componentType":5126,
			"count":162278,
			"type":"VEC3"
		},
		{
			"bufferView":2,
			"componentType":5126,
			"count":162278,
			"type":"VEC2"
		},
		{
			"bufferView":3,
			"componentType":5125,
			"count":943629,
			"type":"SCALAR"
		},
		{
			"bufferView":4,
			"componentType":5126,
			"count":19928,
			"max":[
				1170.9666748046875,
				299.02032470703125,
				-243.12998962402344
			],
			"min":[
				2.3052096366882324,
				76.63211059570312,
				-468.8936767578125
			],
			"type":"VEC3"
		},
		{
			"bufferView":5,
			"componentType":5126,
			"count":19928,
			"type":"VEC3"
		},
		{
			"bufferView":6,
			"componentType":5126,
			"count":19928,
			"type":"VEC2"
		},
		{
			"bufferView":7,
			"componentType":5123,
			"count":75804,
			"type":"SCALAR"
		}
	],
	"bufferViews":[
		{
			"buffer":0,
			"byteLength":1947336,
			"byteOffset":0,
			"target":34962
		},
		{
			"buffer":0,
			"byteLength":1947336,
			"byteOffset":1947336,
			"target":34962
		},
		{
			"buffer":0,
			"byteLength":1298224,
			"byteOffset":3894672,
			"target":34962
		},
		{
			"buffer":0,
			"byteLength":3774516,
			"byteOffset":5192896,
			"target":34963
		},
		{
			"buffer":0,
			"byteLength":239136,
			"byteOffset":8967412,
			"target":34962
		},
		{
			"buffer":0,
			"byteLength":239136,
			"byteOffset":9206548,
			"target":34962
		},
		{
			"buffer":0,
			"byteLength":159424,
			"byteOffset":9445684,
			"target":34962
		},
		{
			"buffer":0,
			"byteLength":151608,
			"byteOffset":9605108,
			"target":34963
		}
	],
	"buffers":[
		{
			"byteLength":9756716,
			"uri":"1.bin"
		}
	]
}
