{
	"asset":{
		"generator":"Khronos glTF Blender I/O v4.3.47",
		"version":"2.0"
	},
	"scene":0,
	"scenes":[
		{
			"name":"Scene",
			"nodes":[
				0
			]
		}
	],
	"nodes":[
		{
			"mesh":0,
			"name":"18200-ACZA-0000_03",
			"scale":[
				0.003281073411926627,
				0.003281073411926627,
				0.003281073411926627
			],
			"translation":[
				-1.6347928047180176,
				0,
				1.380069613456726
			]
		}
	],
	"materials":[
		{
			"doubleSided":true,
			"name":"Material.001",
			"pbrMetallicRoughness":{
				"baseColorFactor":[
					0,
					0,
					0,
					1
				],
				"metallicFactor":0,
				"roughnessFactor":0.5
			}
		}
	],
	"meshes":[
		{
			"name":"18200-ACZA-0000_03",
			"primitives":[
				{
					"attributes":{
						"POSITION":0,
						"NORMAL":1
					},
					"indices":2,
					"material":0
				}
			]
		}
	],
	"accessors":[
		{
			"bufferView":0,
			"componentType":5126,
			"count":277305,
			"max":[
				1259.728759765625,
				576.2183837890625,
				-8.720978736877441
			],
			"min":[
				1.1979639530181885,
				5.864977836608887,
				-441.6903076171875
			],
			"type":"VEC3"
		},
		{
			"bufferView":1,
			"componentType":5126,
			"count":277305,
			"type":"VEC3"
		},
		{
			"bufferView":2,
			"componentType":5125,
			"count":1663620,
			"type":"SCALAR"
		}
	],
	"bufferViews":[
		{
			"buffer":0,
			"byteLength":3327660,
			"byteOffset":0,
			"target":34962
		},
		{
			"buffer":0,
			"byteLength":3327660,
			"byteOffset":3327660,
			"target":34962
		},
		{
			"buffer":0,
			"byteLength":6654480,
			"byteOffset":6655320,
			"target":34963
		}
	],
	"buffers":[
		{
			"byteLength":13309800,
			"uri":"2.bin"
		}
	]
}
