{
	"asset":{
		"generator":"Khronos glTF Blender I/O v4.3.47",
		"version":"2.0"
	},
	"scene":0,
	"scenes":[
		{
			"name":"Scene",
			"nodes":[
				0
			]
		}
	],
	"nodes":[
		{
			"mesh":0,
			"name":"18200-ABV-3000_02",
			"rotation":[
				-0.050214044749736786,
				-0.32152602076530457,
				-0.14590464532375336,
				0.9342437982559204
			],
			"scale":[
				0.004933823831379414,
				0.004933823831379414,
				0.004933823831379414
			],
			"translation":[
				-1.7248317003250122,
				0,
				0
			]
		}
	],
	"materials":[
		{
			"doubleSided":true,
			"name":"Material.001",
			"pbrMetallicRoughness":{
				"baseColorFactor":[
					0,
					0,
					0,
					1
				],
				"metallicFactor":0,
				"roughnessFactor":0.5
			}
		}
	],
	"meshes":[
		{
			"name":"18200-ABV-3000_02",
			"primitives":[
				{
					"attributes":{
						"POSITION":0,
						"NORMAL":1
					},
					"indices":2,
					"material":0
				}
			]
		}
	],
	"accessors":[
		{
			"bufferView":0,
			"componentType":5126,
			"count":193624,
			"max":[
				401.385498046875,
				373.2474060058594,
				-2.5767831802368164
			],
			"min":[
				2.444446086883545,
				1.6930997371673584,
				-589.603515625
			],
			"type":"VEC3"
		},
		{
			"bufferView":1,
			"componentType":5126,
			"count":193624,
			"type":"VEC3"
		},
		{
			"bufferView":2,
			"componentType":5125,
			"count":1161774,
			"type":"SCALAR"
		}
	],
	"bufferViews":[
		{
			"buffer":0,
			"byteLength":2323488,
			"byteOffset":0,
			"target":34962
		},
		{
			"buffer":0,
			"byteLength":2323488,
			"byteOffset":2323488,
			"target":34962
		},
		{
			"buffer":0,
			"byteLength":4647096,
			"byteOffset":4646976,
			"target":34963
		}
	],
	"buffers":[
		{
			"byteLength":9294072,
			"uri":"3.bin"
		}
	]
}
