{
	"asset":{
		"generator":"Khronos glTF Blender I/O v4.0.44",
		"version":"2.0"
	},
	"scene":0,
	"scenes":[
		{
			"name":"Scene",
			"nodes":[
				0
			]
		}
	],
	"nodes":[
		{
			"mesh":0,
			"name":"ROWA-RearSubframe_05Aug2024",
			"scale":[
				0.048792362213134766,
				0.048792362213134766,
				0.048792362213134766
			],
			"translation":[
				-129.8781280517578,
				0,
				31.389148712158203
			]
		}
	],
	"materials":[
		{
			"doubleSided":true,
			"name":"Material.002",
			"pbrMetallicRoughness":{
				"baseColorFactor":[
					0,
					0,
					0,
					1
				],
				"roughnessFactor":0.5059999823570251
			}
		}
	],
	"meshes":[
		{
			"name":"ROWA-RearSubframe_05Aug2024",
			"primitives":[
				{
					"attributes":{
						"POSITION":0,
						"NORMAL":1,
						"TEXCOORD_0":2
					},
					"indices":3,
					"material":0
				}
			]
		}
	],
	"accessors":[
		{
			"bufferView":0,
			"componentType":5126,
			"count":1029003,
			"max":[
				3095.469970703125,
				318.7836608886719,
				-0.0035762786865234375
			],
			"min":[
				2310.03466796875,
				0.04811584949493408,
				-1274.6097412109375
			],
			"type":"VEC3"
		},
		{
			"bufferView":1,
			"componentType":5126,
			"count":1029003,
			"type":"VEC3"
		},
		{
			"bufferView":2,
			"componentType":5126,
			"count":1029003,
			"type":"VEC2"
		},
		{
			"bufferView":3,
			"componentType":5125,
			"count":5527626,
			"type":"SCALAR"
		}
	],
	"bufferViews":[
		{
			"buffer":0,
			"byteLength":12348036,
			"byteOffset":0,
			"target":34962
		},
		{
			"buffer":0,
			"byteLength":12348036,
			"byteOffset":12348036,
			"target":34962
		},
		{
			"buffer":0,
			"byteLength":8232024,
			"byteOffset":24696072,
			"target":34962
		},
		{
			"buffer":0,
			"byteLength":22110504,
			"byteOffset":32928096,
			"target":34963
		}
	],
	"buffers":[
		{
			"byteLength":55038600,
			"uri":"4.bin"
		}
	]
}
