{
	"asset":{
		"generator":"Khronos glTF Blender I/O v4.0.44",
		"version":"2.0"
	},
	"scene":0,
	"scenes":[
		{
			"name":"Scene",
			"nodes":[
				0
			]
		}
	],
	"nodes":[
		{
			"mesh":0,
			"name":"ROWA-RearSubframe_05Aug2024",
			"scale":[
				0.015209621749818325,
				0.015209621749818325,
				0.015209621749818325
			],
			"translation":[
				3.972900390625,
				27.837738037109375,
				0.6383647918701172
			]
		}
	],
	"materials":[
		{
			"doubleSided":true,
			"name":"Material.002",
			"pbrMetallicRoughness":{
				"baseColorFactor":[
					0,
					0,
					0,
					1
				],
				"roughnessFactor":0.10000000149011612
			}
		}
	],
	"meshes":[
		{
			"name":"ROWA-RearSubframe_05Aug2024",
			"primitives":[
				{
					"attributes":{
						"POSITION":0,
						"NORMAL":1,
						"TEXCOORD_0":2
					},
					"indices":3,
					"material":0
				}
			]
		}
	],
	"accessors":[
		{
			"bufferView":0,
			"componentType":5126,
			"count":943268,
			"max":[
				352.191650390625,
				136.94264221191406,
				630.2340698242188
			],
			"min":[
				-433.24365234375,
				-181.79290771484375,
				-644.3720703125
			],
			"type":"VEC3"
		},
		{
			"bufferView":1,
			"componentType":5126,
			"count":943268,
			"type":"VEC3"
		},
		{
			"bufferView":2,
			"componentType":5126,
			"count":943268,
			"type":"VEC2"
		},
		{
			"bufferView":3,
			"componentType":5125,
			"count":5527626,
			"type":"SCALAR"
		}
	],
	"bufferViews":[
		{
			"buffer":0,
			"byteLength":11319216,
			"byteOffset":0,
			"target":34962
		},
		{
			"buffer":0,
			"byteLength":11319216,
			"byteOffset":11319216,
			"target":34962
		},
		{
			"buffer":0,
			"byteLength":7546144,
			"byteOffset":22638432,
			"target":34962
		},
		{
			"buffer":0,
			"byteLength":22110504,
			"byteOffset":30184576,
			"target":34963
		}
	],
	"buffers":[
		{
			"byteLength":52295080,
			"uri":"4%5B1%5D.bin"
		}
	]
}
