{
	"asset":{
		"generator":"Khronos glTF Blender I/O v4.0.44",
		"version":"2.0"
	},
	"scene":0,
	"scenes":[
		{
			"name":"Scene",
			"nodes":[
				0,
				1,
				2,
				3,
				4,
				5,
				6,
				7,
				8,
				9,
				10,
				11
			]
		}
	],
	"nodes":[
		{
			"mesh":0,
			"name":"ROWA-RearSubframe_05Aug2024.001",
			"scale":[
				0.015209621749818325,
				0.015209621749818325,
				0.015209621749818325
			],
			"translation":[
				3.972900390625,
				27.837738037109375,
				0.6383647918701172
			]
		},
		{
			"mesh":1,
			"name":"ROWA-RearSubframe_05Aug2024.016",
			"scale":[
				0.015209621749818325,
				0.015209621749818325,
				0.015209621749818325
			],
			"translation":[
				3.972900390625,
				27.837738037109375,
				0.6383647918701172
			]
		},
		{
			"mesh":2,
			"name":"ROWA-RearSubframe_05Aug2024.050",
			"scale":[
				0.015209621749818325,
				0.015209621749818325,
				0.015209621749818325
			],
			"translation":[
				3.972900390625,
				27.837738037109375,
				0.6383647918701172
			]
		},
		{
			"mesh":3,
			"name":"ROWA-RearSubframe_05Aug2024.052",
			"scale":[
				0.015209621749818325,
				0.015209621749818325,
				0.015209621749818325
			],
			"translation":[
				3.972900390625,
				27.837738037109375,
				0.6383647918701172
			]
		},
		{
			"mesh":4,
			"name":"ROWA-RearSubframe_05Aug2024.054",
			"scale":[
				0.015209621749818325,
				0.015209621749818325,
				0.015209621749818325
			],
			"translation":[
				3.972900390625,
				27.837738037109375,
				0.6383647918701172
			]
		},
		{
			"mesh":5,
			"name":"ROWA-RearSubframe_05Aug2024.063",
			"scale":[
				0.015209621749818325,
				0.015209621749818325,
				0.015209621749818325
			],
			"translation":[
				3.972900390625,
				27.837738037109375,
				0.6383647918701172
			]
		},
		{
			"mesh":6,
			"name":"ROWA-RearSubframe_05Aug2024.086",
			"scale":[
				0.015209621749818325,
				0.015209621749818325,
				0.015209621749818325
			],
			"translation":[
				3.972900390625,
				27.837738037109375,
				0.6383647918701172
			]
		},
		{
			"mesh":7,
			"name":"ROWA-RearSubframe_05Aug2024.112",
			"scale":[
				0.015209621749818325,
				0.015209621749818325,
				0.015209621749818325
			],
			"translation":[
				3.972900390625,
				27.837738037109375,
				0.6383647918701172
			]
		},
		{
			"mesh":8,
			"name":"ROWA-RearSubframe_05Aug2024.113",
			"scale":[
				0.015209621749818325,
				0.015209621749818325,
				0.015209621749818325
			],
			"translation":[
				3.972900390625,
				27.837738037109375,
				0.6383647918701172
			]
		},
		{
			"mesh":9,
			"name":"ROWA-RearSubframe_05Aug2024.230",
			"scale":[
				0.015209621749818325,
				0.015209621749818325,
				0.015209621749818325
			],
			"translation":[
				3.972900390625,
				27.837738037109375,
				0.6383647918701172
			]
		},
		{
			"mesh":10,
			"name":"ROWA-RearSubframe_05Aug2024.284",
			"scale":[
				0.015209621749818325,
				0.015209621749818325,
				0.015209621749818325
			],
			"translation":[
				3.972900390625,
				27.837738037109375,
				0.6383647918701172
			]
		},
		{
			"mesh":11,
			"name":"ROWA-RearSubframe_05Aug2024.050 Remeshed",
			"translation":[
				8.331493377685547,
				28.34882926940918,
				7.9726033210754395
			]
		}
	],
	"materials":[
		{
			"doubleSided":true,
			"name":"Material.002",
			"pbrMetallicRoughness":{
				"baseColorFactor":[
					0,
					0,
					0,
					1
				],
				"roughnessFactor":0.5063291192054749
			}
		},
		{
			"doubleSided":true,
			"name":"Material.001",
			"pbrMetallicRoughness":{
				"baseColorFactor":[
					0,
					0,
					0,
					1
				],
				"roughnessFactor":0.5
			}
		}
	],
	"meshes":[
		{
			"name":"ROWA-RearSubframe_05Aug2024.001",
			"primitives":[
				{
					"attributes":{
						"POSITION":0,
						"NORMAL":1,
						"TEXCOORD_0":2
					},
					"indices":3,
					"material":0
				}
			]
		},
		{
			"name":"ROWA-RearSubframe_05Aug2024.016",
			"primitives":[
				{
					"attributes":{
						"POSITION":4,
						"NORMAL":5,
						"TEXCOORD_0":6
					},
					"indices":7,
					"material":0
				}
			]
		},
		{
			"name":"ROWA-RearSubframe_05Aug2024.050",
			"primitives":[
				{
					"attributes":{
						"POSITION":8,
						"NORMAL":9,
						"TEXCOORD_0":10
					},
					"indices":11,
					"material":0
				}
			]
		},
		{
			"name":"ROWA-RearSubframe_05Aug2024.052",
			"primitives":[
				{
					"attributes":{
						"POSITION":12,
						"NORMAL":13,
						"TEXCOORD_0":14
					},
					"indices":15,
					"material":0
				}
			]
		},
		{
			"name":"ROWA-RearSubframe_05Aug2024.054",
			"primitives":[
				{
					"attributes":{
						"POSITION":16,
						"NORMAL":17,
						"TEXCOORD_0":18
					},
					"indices":19,
					"material":0
				}
			]
		},
		{
			"name":"ROWA-RearSubframe_05Aug2024.063",
			"primitives":[
				{
					"attributes":{
						"POSITION":20,
						"NORMAL":21,
						"TEXCOORD_0":22
					},
					"indices":23,
					"material":0
				}
			]
		},
		{
			"name":"ROWA-RearSubframe_05Aug2024.086",
			"primitives":[
				{
					"attributes":{
						"POSITION":24,
						"NORMAL":25,
						"TEXCOORD_0":26
					},
					"indices":27,
					"material":0
				}
			]
		},
		{
			"name":"ROWA-RearSubframe_05Aug2024.112",
			"primitives":[
				{
					"attributes":{
						"POSITION":28,
						"NORMAL":29,
						"TEXCOORD_0":30
					},
					"indices":31,
					"material":0
				}
			]
		},
		{
			"name":"ROWA-RearSubframe_05Aug2024.113",
			"primitives":[
				{
					"attributes":{
						"POSITION":32,
						"NORMAL":33,
						"TEXCOORD_0":34
					},
					"indices":35,
					"material":0
				}
			]
		},
		{
			"name":"ROWA-RearSubframe_05Aug2024.230",
			"primitives":[
				{
					"attributes":{
						"POSITION":36,
						"NORMAL":37,
						"TEXCOORD_0":38
					},
					"indices":27,
					"material":0
				}
			]
		},
		{
			"name":"ROWA-RearSubframe_05Aug2024.284",
			"primitives":[
				{
					"attributes":{
						"POSITION":39,
						"NORMAL":40,
						"TEXCOORD_0":41
					},
					"indices":42,
					"material":0
				}
			]
		},
		{
			"name":"Mesh.005",
			"primitives":[
				{
					"attributes":{
						"POSITION":43,
						"NORMAL":44
					},
					"indices":45,
					"material":1
				}
			]
		}
	],
	"accessors":[
		{
			"bufferView":0,
			"componentType":5126,
			"count":17615,
			"max":[
				338.1484375,
				106.91194152832031,
				576.0726928710938
			],
			"min":[
				-433.24365234375,
				-43.77494812011719,
				245.20721435546875
			],
			"type":"VEC3"
		},
		{
			"bufferView":1,
			"componentType":5126,
			"count":17615,
			"type":"VEC3"
		},
		{
			"bufferView":2,
			"componentType":5126,
			"count":17615,
			"type":"VEC2"
		},
		{
			"bufferView":3,
			"componentType":5123,
			"count":94962,
			"type":"SCALAR"
		},
		{
			"bufferView":4,
			"componentType":5126,
			"count":6440,
			"max":[
				35.38037109375,
				136.94264221191406,
				422.31475830078125
			],
			"min":[
				-149.293212890625,
				30.203964233398438,
				264.60455322265625
			],
			"type":"VEC3"
		},
		{
			"bufferView":5,
			"componentType":5126,
			"count":6440,
			"type":"VEC3"
		},
		{
			"bufferView":6,
			"componentType":5126,
			"count":6440,
			"type":"VEC2"
		},
		{
			"bufferView":7,
			"componentType":5123,
			"count":33426,
			"type":"SCALAR"
		},
		{
			"bufferView":8,
			"componentType":5126,
			"count":36738,
			"max":[
				333.351806640625,
				85.22505187988281,
				534.9310302734375
			],
			"min":[
				240.091796875,
				-21.774948120117188,
				430.9310302734375
			],
			"type":"VEC3"
		},
		{
			"bufferView":9,
			"componentType":5126,
			"count":36738,
			"type":"VEC3"
		},
		{
			"bufferView":10,
			"componentType":5126,
			"count":36738,
			"type":"VEC2"
		},
		{
			"bufferView":11,
			"componentType":5123,
			"count":215574,
			"type":"SCALAR"
		},
		{
			"bufferView":12,
			"componentType":5126,
			"count":62392,
			"max":[
				-316.2783203125,
				17.775054931640625,
				604.5560302734375
			],
			"min":[
				-420.2783203125,
				-89.2249526977539,
				511.3060302734375
			],
			"type":"VEC3"
		},
		{
			"bufferView":13,
			"componentType":5126,
			"count":62392,
			"type":"VEC3"
		},
		{
			"bufferView":14,
			"componentType":5126,
			"count":62392,
			"type":"VEC2"
		},
		{
			"bufferView":15,
			"componentType":5123,
			"count":371916,
			"type":"SCALAR"
		},
		{
			"bufferView":16,
			"componentType":5126,
			"count":627,
			"max":[
				-309.647705078125,
				-33.77528381347656,
				630.2340698242188
			],
			"min":[
				-353.685791015625,
				-58.775360107421875,
				588.772216796875
			],
			"type":"VEC3"
		},
		{
			"bufferView":17,
			"componentType":5126,
			"count":627,
			"type":"VEC3"
		},
		{
			"bufferView":18,
			"componentType":5126,
			"count":627,
			"type":"VEC2"
		},
		{
			"bufferView":19,
			"componentType":5123,
			"count":3426,
			"type":"SCALAR"
		},
		{
			"bufferView":20,
			"componentType":5126,
			"count":746,
			"max":[
				-322.74658203125,
				-28.17578125,
				620.9152221679688
			],
			"min":[
				-338.91259765625,
				-34.67622375488281,
				606.9150390625
			],
			"type":"VEC3"
		},
		{
			"bufferView":21,
			"componentType":5126,
			"count":746,
			"type":"VEC3"
		},
		{
			"bufferView":22,
			"componentType":5126,
			"count":746,
			"type":"VEC2"
		},
		{
			"bufferView":23,
			"componentType":5123,
			"count":4368,
			"type":"SCALAR"
		},
		{
			"bufferView":24,
			"componentType":5126,
			"count":4,
			"max":[
				-343.2783203125,
				-0.7749481201171875,
				182.9310302734375
			],
			"min":[
				-345.2783203125,
				-2.7749481201171875,
				154.180908203125
			],
			"type":"VEC3"
		},
		{
			"bufferView":25,
			"componentType":5126,
			"count":4,
			"type":"VEC3"
		},
		{
			"bufferView":26,
			"componentType":5126,
			"count":4,
			"type":"VEC2"
		},
		{
			"bufferView":27,
			"componentType":5123,
			"count":6,
			"type":"SCALAR"
		},
		{
			"bufferView":28,
			"componentType":5126,
			"count":88,
			"max":[
				327.76953125,
				63.72505187988281,
				519.9281005859375
			],
			"min":[
				240.244140625,
				61.72505187988281,
				436.4552001953125
			],
			"type":"VEC3"
		},
		{
			"bufferView":29,
			"componentType":5126,
			"count":88,
			"type":"VEC3"
		},
		{
			"bufferView":30,
			"componentType":5126,
			"count":88,
			"type":"VEC2"
		},
		{
			"bufferView":31,
			"componentType":5123,
			"count":222,
			"type":"SCALAR"
		},
		{
			"bufferView":32,
			"componentType":5126,
			"count":76,
			"max":[
				327.76953125,
				1.7250518798828125,
				519.9281005859375
			],
			"min":[
				240.244140625,
				-0.2749481201171875,
				436.4552001953125
			],
			"type":"VEC3"
		},
		{
			"bufferView":33,
			"componentType":5126,
			"count":76,
			"type":"VEC3"
		},
		{
			"bufferView":34,
			"componentType":5126,
			"count":76,
			"type":"VEC2"
		},
		{
			"bufferView":35,
			"componentType":5123,
			"count":222,
			"type":"SCALAR"
		},
		{
			"bufferView":36,
			"componentType":5126,
			"count":4,
			"max":[
				-353.0146484375,
				-39.77513122558594,
				601.9021606445312
			],
			"min":[
				-355.587890625,
				-57.77516174316406,
				600.5830688476562
			],
			"type":"VEC3"
		},
		{
			"bufferView":37,
			"componentType":5126,
			"count":4,
			"type":"VEC3"
		},
		{
			"bufferView":38,
			"componentType":5126,
			"count":4,
			"type":"VEC2"
		},
		{
			"bufferView":39,
			"componentType":5126,
			"count":6,
			"max":[
				-279.283935546875,
				37.6112060546875,
				41.942138671875
			],
			"min":[
				-281.28466796875,
				23.4276123046875,
				33.20037841796875
			],
			"type":"VEC3"
		},
		{
			"bufferView":40,
			"componentType":5126,
			"count":6,
			"type":"VEC3"
		},
		{
			"bufferView":41,
			"componentType":5126,
			"count":6,
			"type":"VEC2"
		},
		{
			"bufferView":42,
			"componentType":5123,
			"count":12,
			"type":"SCALAR"
		},
		{
			"bufferView":43,
			"componentType":5126,
			"count":63547,
			"max":[
				0.7111425399780273,
				0.7851505875587463,
				0.8018603324890137
			],
			"min":[
				-0.7065944671630859,
				-0.8422794342041016,
				-0.7799415588378906
			],
			"type":"VEC3"
		},
		{
			"bufferView":44,
			"componentType":5126,
			"count":63547,
			"type":"VEC3"
		},
		{
			"bufferView":45,
			"componentType":5123,
			"count":324228,
			"type":"SCALAR"
		}
	],
	"bufferViews":[
		{
			"buffer":0,
			"byteLength":211380,
			"byteOffset":0,
			"target":34962
		},
		{
			"buffer":0,
			"byteLength":211380,
			"byteOffset":211380,
			"target":34962
		},
		{
			"buffer":0,
			"byteLength":140920,
			"byteOffset":422760,
			"target":34962
		},
		{
			"buffer":0,
			"byteLength":189924,
			"byteOffset":563680,
			"target":34963
		},
		{
			"buffer":0,
			"byteLength":77280,
			"byteOffset":753604,
			"target":34962
		},
		{
			"buffer":0,
			"byteLength":77280,
			"byteOffset":830884,
			"target":34962
		},
		{
			"buffer":0,
			"byteLength":51520,
			"byteOffset":908164,
			"target":34962
		},
		{
			"buffer":0,
			"byteLength":66852,
			"byteOffset":959684,
			"target":34963
		},
		{
			"buffer":0,
			"byteLength":440856,
			"byteOffset":1026536,
			"target":34962
		},
		{
			"buffer":0,
			"byteLength":440856,
			"byteOffset":1467392,
			"target":34962
		},
		{
			"buffer":0,
			"byteLength":293904,
			"byteOffset":1908248,
			"target":34962
		},
		{
			"buffer":0,
			"byteLength":431148,
			"byteOffset":2202152,
			"target":34963
		},
		{
			"buffer":0,
			"byteLength":748704,
			"byteOffset":2633300,
			"target":34962
		},
		{
			"buffer":0,
			"byteLength":748704,
			"byteOffset":3382004,
			"target":34962
		},
		{
			"buffer":0,
			"byteLength":499136,
			"byteOffset":4130708,
			"target":34962
		},
		{
			"buffer":0,
			"byteLength":743832,
			"byteOffset":4629844,
			"target":34963
		},
		{
			"buffer":0,
			"byteLength":7524,
			"byteOffset":5373676,
			"target":34962
		},
		{
			"buffer":0,
			"byteLength":7524,
			"byteOffset":5381200,
			"target":34962
		},
		{
			"buffer":0,
			"byteLength":5016,
			"byteOffset":5388724,
			"target":34962
		},
		{
			"buffer":0,
			"byteLength":6852,
			"byteOffset":5393740,
			"target":34963
		},
		{
			"buffer":0,
			"byteLength":8952,
			"byteOffset":5400592,
			"target":34962
		},
		{
			"buffer":0,
			"byteLength":8952,
			"byteOffset":5409544,
			"target":34962
		},
		{
			"buffer":0,
			"byteLength":5968,
			"byteOffset":5418496,
			"target":34962
		},
		{
			"buffer":0,
			"byteLength":8736,
			"byteOffset":5424464,
			"target":34963
		},
		{
			"buffer":0,
			"byteLength":48,
			"byteOffset":5433200,
			"target":34962
		},
		{
			"buffer":0,
			"byteLength":48,
			"byteOffset":5433248,
			"target":34962
		},
		{
			"buffer":0,
			"byteLength":32,
			"byteOffset":5433296,
			"target":34962
		},
		{
			"buffer":0,
			"byteLength":12,
			"byteOffset":5433328,
			"target":34963
		},
		{
			"buffer":0,
			"byteLength":1056,
			"byteOffset":5433340,
			"target":34962
		},
		{
			"buffer":0,
			"byteLength":1056,
			"byteOffset":5434396,
			"target":34962
		},
		{
			"buffer":0,
			"byteLength":704,
			"byteOffset":5435452,
			"target":34962
		},
		{
			"buffer":0,
			"byteLength":444,
			"byteOffset":5436156,
			"target":34963
		},
		{
			"buffer":0,
			"byteLength":912,
			"byteOffset":5436600,
			"target":34962
		},
		{
			"buffer":0,
			"byteLength":912,
			"byteOffset":5437512,
			"target":34962
		},
		{
			"buffer":0,
			"byteLength":608,
			"byteOffset":5438424,
			"target":34962
		},
		{
			"buffer":0,
			"byteLength":444,
			"byteOffset":5439032,
			"target":34963
		},
		{
			"buffer":0,
			"byteLength":48,
			"byteOffset":5439476,
			"target":34962
		},
		{
			"buffer":0,
			"byteLength":48,
			"byteOffset":5439524,
			"target":34962
		},
		{
			"buffer":0,
			"byteLength":32,
			"byteOffset":5439572,
			"target":34962
		},
		{
			"buffer":0,
			"byteLength":72,
			"byteOffset":5439604,
			"target":34962
		},
		{
			"buffer":0,
			"byteLength":72,
			"byteOffset":5439676,
			"target":34962
		},
		{
			"buffer":0,
			"byteLength":48,
			"byteOffset":5439748,
			"target":34962
		},
		{
			"buffer":0,
			"byteLength":24,
			"byteOffset":5439796,
			"target":34963
		},
		{
			"buffer":0,
			"byteLength":762564,
			"byteOffset":5439820,
			"target":34962
		},
		{
			"buffer":0,
			"byteLength":762564,
			"byteOffset":6202384,
			"target":34962
		},
		{
			"buffer":0,
			"byteLength":648456,
			"byteOffset":6964948,
			"target":34963
		}
	],
	"buffers":[
		{
			"byteLength":7613404,
			"uri":"4remesher.bin"
		}
	]
}
