{
	"asset":{
		"generator":"Khronos glTF Blender I/O v4.0.44",
		"version":"2.0"
	},
	"scene":0,
	"scenes":[
		{
			"name":"Scene",
			"nodes":[
				0
			]
		}
	],
	"nodes":[
		{
			"mesh":0,
			"name":"Mesh_0",
			"rotation":[
				-0.70710688829422,
				0,
				0,
				0.7071066498756409
			],
			"scale":[
				0.09435275197029114,
				0.09435274451971054,
				0.09435274451971054
			],
			"translation":[
				-13171.6875,
				19.02035140991211,
				3106.64208984375
			]
		}
	],
	"materials":[
		{
			"name":"Material_0",
			"pbrMetallicRoughness":{
				"baseColorFactor":[
					0,
					0,
					0,
					1
				],
				"roughnessFactor":0.5059999823570251
			}
		}
	],
	"meshes":[
		{
			"name":"Mesh_0",
			"primitives":[
				{
					"attributes":{
						"POSITION":0,
						"NORMAL":1,
						"TEXCOORD_0":2
					},
					"indices":3,
					"material":0
				}
			]
		}
	],
	"accessors":[
		{
			"bufferView":0,
			"componentType":5126,
			"count":1228873,
			"max":[
				355.88037109375,
				645.558349609375,
				137.33111572265625
			],
			"min":[
				-429.554931640625,
				-629.0477905273438,
				-181.40443420410156
			],
			"type":"VEC3"
		},
		{
			"bufferView":1,
			"componentType":5126,
			"count":1228873,
			"type":"VEC3"
		},
		{
			"bufferView":2,
			"componentType":5126,
			"count":1228873,
			"type":"VEC2"
		},
		{
			"bufferView":3,
			"componentType":5125,
			"count":5527626,
			"type":"SCALAR"
		}
	],
	"bufferViews":[
		{
			"buffer":0,
			"byteLength":14746476,
			"byteOffset":0,
			"target":34962
		},
		{
			"buffer":0,
			"byteLength":14746476,
			"byteOffset":14746476,
			"target":34962
		},
		{
			"buffer":0,
			"byteLength":9830984,
			"byteOffset":29492952,
			"target":34962
		},
		{
			"buffer":0,
			"byteLength":22110504,
			"byteOffset":39323936,
			"target":34963
		}
	],
	"buffers":[
		{
			"byteLength":61434440,
			"uri":"4th.bin"
		}
	]
}
