{
    "asset": {
        "version": "2.0",
        "generator": "Open Asset Import Library (assimp v5.2.cf7d3637)"
    },
    "extensionsUsed": [
        "KHR_materials_volume",
        "FB_ngon_encoding"
    ],
    "accessors": [
        {
            "bufferView": 0,
            "byteOffset": 0,
            "componentType": 5126,
            "count": 943629,
            "type": "VEC3",
            "max": [
                1200.339599609375,
                433.24444580078127,
                -8.711397171020508
            ],
            "min": [
                2.3052096366882326,
                15.385091781616211,
                -468.8936767578125
            ]
        },
        {
            "bufferView": 1,
            "byteOffset": 0,
            "componentType": 5126,
            "count": 943629,
            "type": "VEC3",
            "max": [
                1.0,
                1.0,
                1.0
            ],
            "min": [
                -1.0,
                -1.0,
                -1.0
            ]
        },
        {
            "bufferView": 2,
            "byteOffset": 0,
            "componentType": 5126,
            "count": 943629,
            "type": "VEC2",
            "max": [
                0.0,
                1.0
            ],
            "min": [
                0.0,
                1.0
            ]
        },
        {
            "bufferView": 3,
            "byteOffset": 0,
            "componentType": 5125,
            "count": 943629,
            "type": "SCALAR",
            "max": [
                943628
            ],
            "min": [
                0
            ]
        },
        {
            "bufferView": 4,
            "byteOffset": 0,
            "componentType": 5126,
            "count": 75804,
            "type": "VEC3",
            "max": [
                1170.9666748046876,
                299.02032470703127,
                -243.12998962402345
            ],
            "min": [
                2.3052096366882326,
                76.63211059570313,
                -468.8936767578125
            ]
        },
        {
            "bufferView": 5,
            "byteOffset": 0,
            "componentType": 5126,
            "count": 75804,
            "type": "VEC3",
            "max": [
                0.9997073411941528,
                0.9999324083328247,
                0.9999934434890747
            ],
            "min": [
                -0.9999140501022339,
                -0.9999527931213379,
                -0.999985933303833
            ]
        },
        {
            "bufferView": 6,
            "byteOffset": 0,
            "componentType": 5126,
            "count": 75804,
            "type": "VEC2",
            "max": [
                0.7686641812324524,
                0.9998288154602051
            ],
            "min": [
                0.0001712858211249113,
                0.00017118453979492188
            ]
        },
        {
            "bufferView": 7,
            "byteOffset": 0,
            "componentType": 5125,
            "count": 75804,
            "type": "SCALAR",
            "max": [
                75803
            ],
            "min": [
                0
            ]
        }
    ],
    "buffers": [
        {
            "byteLength": 36699588,
            "uri": "result.bin"
        }
    ],
    "bufferViews": [
        {
            "buffer": 0,
            "byteOffset": 0,
            "byteLength": 11323548,
            "target": 34962
        },
        {
            "buffer": 0,
            "byteOffset": 11323548,
            "byteLength": 11323548,
            "target": 34962
        },
        {
            "buffer": 0,
            "byteOffset": 22647096,
            "byteLength": 7549032,
            "target": 34962
        },
        {
            "buffer": 0,
            "byteOffset": 30196128,
            "byteLength": 3774516,
            "target": 34963
        },
        {
            "buffer": 0,
            "byteOffset": 33970644,
            "byteLength": 909648,
            "target": 34962
        },
        {
            "buffer": 0,
            "byteOffset": 34880292,
            "byteLength": 909648,
            "target": 34962
        },
        {
            "buffer": 0,
            "byteOffset": 35789940,
            "byteLength": 606432,
            "target": 34962
        },
        {
            "buffer": 0,
            "byteOffset": 36396372,
            "byteLength": 303216,
            "target": 34963
        }
    ],
    "materials": [
        {
            "name": "Material.001",
            "pbrMetallicRoughness": {
                "baseColorFactor": [
                    0.0013185242423787714,
                    0.0013185242423787714,
                    0.0013185242423787714,
                    1.0
                ],
                "metallicFactor": 0.0,
                "roughnessFactor": 0.5
            },
            "doubleSided": true
        },
        {
            "name": "Material.002",
            "pbrMetallicRoughness": {
                "baseColorFactor": [
                    0.36984026432037356,
                    0.36984026432037356,
                    0.36984026432037356,
                    1.0
                ],
                "metallicFactor": 0.0,
                "roughnessFactor": 0.5
            },
            "doubleSided": true
        },
        {
            "name": "material"
        }
    ],
    "meshes": [
        {
            "name": "18200-RAA-0000_08-0",
            "primitives": [
                {
                    "mode": 4,
                    "material": 0,
                    "indices": 3,
                    "attributes": {
                        "POSITION": 0,
                        "NORMAL": 1,
                        "TEXCOORD_0": 2
                    }
                },
                {
                    "mode": 4,
                    "material": 1,
                    "indices": 7,
                    "attributes": {
                        "POSITION": 4,
                        "NORMAL": 5,
                        "TEXCOORD_0": 6
                    }
                }
            ]
        }
    ],
    "nodes": [
        {
            "name": "1",
            "matrix": [
                0.0028250953182578089,
                0.0,
                0.0,
                0.0,
                0.0,
                0.0028250953182578089,
                0.0,
                0.0,
                0.0,
                0.0,
                0.0028250953182578089,
                0.0,
                -1.1760385036468506,
                0.0,
                1.0319124460220338,
                1.0
            ],
            "mesh": 0
        }
    ],
    "scenes": [
        {
            "nodes": [
                0
            ]
        }
    ],
    "scene": 0
}