<svg width="523" height="456" fill="none" xmlns="http://www.w3.org/2000/svg"><path fill-rule="evenodd" clip-rule="evenodd" d="M344.82 297.827c.182-.112.561-.154.659-.056.658.686 1.596 1.163 1.778 2.241.14.841.35 1.681.588 2.508.63 2.101.882 4.328 2.213 6.178.28.378.378.896.49 1.372.126.477.126.981.266 1.443a9.07 9.07 0 0 1-.028 5.422c-.14.448-.28 1.008-.168 1.429.378 1.373.154 2.675-.308 3.95-.532 1.471-.378 2.648 1.232 3.306a.64.64 0 0 1 .294.21c1.414 1.836 2.843 3.671 4.201 5.534.686.938.546 2.101.686 3.18.028.238.154.476.266.686.378.673.448 1.373.392 2.13-.07.77.21 1.456.743 2.017.756.798 1.512 1.583 1.736 2.746.056.308.42.588.672.84.35.336.868.56 1.092.967.589 1.036 1.555 1.513 2.549 2.017 1.19.616 2.367 1.289 3.543 1.933l-.098.098h.238c-.042-.028-.098-.056-.14-.084.238-.21.462-.448.714-.63.462-.336.602-.771.392-1.261-.42-1.009-.7-2.143-1.358-2.956-.854-1.05-1.008-2.157-1.036-3.376 0-.728.014-1.457.042-2.171.028-.883-.182-1.737-.715-2.396-.91-1.121-1.946-2.143-2.94-3.208-1.485-.588-2.381-1.975-3.865-2.619-.98-.435-1.695-1.359-1.653-2.634a2.6 2.6 0 0 0-.784-1.975c-.784-.799-1.134-1.807-1.554-2.788-1.064-.238-1.639-.925-1.765-2.003-.084-.729-.056-1.443.196-2.172.939-2.661 1.891-5.309 2.143-8.139 0-.112.084-.238.182-.308.182-.126.392-.294.602-.322.21-.014.49.056.658.196s.322.392.35.616c.14 1.331.897 1.933 2.213 1.947.364 0 .798 0 1.064.211 1.247.924 2.731 1.555 3.431 3.152.798 1.821 2.409 2.998 3.865 4.286.336-.126.784-.462.966-.35.714.42 1.513.813 1.401 1.919-.084.967 0 1.948 0 2.928 0 .28.644.518.924.364.112-.056.252-.07.336-.14 1.428-1.317 2.885-2.633 4.285-3.992.35-.35.672-.701 1.176-.799 1.905-.364 3.291-1.597 4.677-2.801.841-.729 1.317-1.668 1.639-2.788.476-1.695.756-3.32.07-5.001-.042-.112-.014-.239-.028-.365-.252-2.227-1.036-4.272-2.003-6.276-.378-.784-.91-1.428-1.498-2.073-1.162-1.303-2.619-2.213-4.019-3.194-.924-.644-1.75-1.331-1.961-2.549-.112-.617-.574-1.065-1.036-1.485-.364-.337-.728-.659-1.064-1.009-.154-.168-.35-.42-.35-.63 0-1.303-.392-2.704.924-3.713.602-.462.938-1.12 1.078-1.877.098-.518.364-.939.799-1.177 1.4-.756 2.814-1.513 4.243-2.199.294-.154.728-.126 1.078-.07s.672.294 1.022.392c.868.224 1.54.575 1.681 1.625.084.729.588 1.317 1.19 1.793.616.477 1.582.168 1.722-.616.07-.35 0-.729 0-1.093l.084.084.056-.196-.112.098c-.112-.182-.252-.364-.238-.518.014-.182.252-.476.42-.504 1.709-.239 3.179-1.191 4.845-1.625 1.387-.351 2.647-1.219 3.347-2.634.21-.42.504-.406.841-.182.406.266.77.616 1.316.364 1.008-.462 2.044-.728 3.151-.854.826-.085 1.638-.449 2.45-.715.84-.28 1.541-.728 1.807-1.653.112-.392.49-.448.784-.644 1.204-.799 2.52-1.499 3.067-2.97.042-.112.098-.252.196-.294 1.05-.547 1.582-1.485 1.946-2.55.14-.392.56-.364.896-.49.602-.224.799-.561.658-1.107-.252-.953-.238-1.891-.14-2.872.056-.588-.224-1.107.519-1.513 1.148-.616 1.75-1.681 1.946-2.956.112-.756.35-1.457.966-1.919.882-.644 1.177-1.457 1.163-2.521 0-.589.154-1.247.448-1.738.672-1.05.238-1.877-.378-2.675-.379-.476-.869-.841-1.345-1.247-.378-.322-.84-.308-1.288-.294v.07h-.21l.126-.07h.098c.07-.322.07-.687.266-.911.378-.448.882-.784 1.33-1.176.392-.351.392-.827.154-1.275-.378-.771-1.092-1.205-1.694-1.751h-.084l-.168-.154.224.112.028.028c.21-.028.434-.042.616-.126.812-.393 1.008-1.149.448-1.78-.392-.448-.798-.966-1.302-1.274-.896-.533-1.47-1.233-1.891-2.172-.546-1.218-1.204-2.409-1.778-3.614-.378-.799-.882-1.457-1.694-1.849-.449-.21-.855-.476-1.289-.701-.994-.546-1.274-1.4-1.148-2.479.084-.743.154-1.457.658-2.059.392-.463.784-.953 1.022-1.499.476-1.079 1.317-1.751 2.255-2.326.938-.574 1.96-.98 3.109-.966.434 0 .616-.365.714-.729a4 4 0 0 0 .14-1.079c.014-.63-.476-1.288-1.036-1.316-.602-.042-1.205.028-1.821 0-.476-.028-.98-.056-1.428-.225-.448-.168-.84-.49-1.26-.742-.491-.28-.967-.14-1.401.084-.91.448-1.456 1.289-2.128 1.989-.238.238-.616.379-.953.463-.574.154-1.19-.14-1.456-.841-.364-.967-.798-1.709-1.904-2.031-1.079-.322-1.835-1.191-2.521-2.059-.602-.757-.07-2.2.854-2.354.364-.056.728-.042 1.106-.07.813-.056 1.415-.42 1.653-1.205.42-1.401.672-2.872 2.296-3.544.379-.154.575-.756.827-1.177.378-.63.686-1.303 1.106-1.905.196-.266.56-.49.896-.56.952-.21 1.639.308 2.227.98.49.561.322 1.121 0 1.695-.126.211-.224.435-.35.645-.476.77-.645 1.569-.252 2.437.154.337.21.715.336 1.051.224.588-.196.883-.49 1.247-.071.098-.169.224-.169.322.028.21.042.49.183.602.154.126.476.224.644.14.812-.336 1.428-.924 1.918-1.653 1.288-1.877 3.235-2.507 5.335-2.843.337-.056.701.112 1.037.21.35.098.686.238 1.036.364 1.484.504 1.47.504 1.4 2.017-.056 1.219-.07 2.438-.084 3.657 0 .644.266 1.176.686 1.667.337.392.729.644 1.275.504.35-.084.7-.224 1.064-.28.63-.112 1.246.028 1.708.462.449.406.841.883 1.233 1.345.392.476.308.784-.308 1.541-.49.602-.588.84-.154 1.247 1.358 1.33 1.652 2.913 1.4 4.707-.07.49-.126.98-.112 1.47 0 1.009.602 1.808 1.036 2.676.028.07.224.098.336.084.644-.056 1.121-.448 1.569-.868.658-.617 1.414-.953 2.338-.841.364.042.742-.014 1.093.042.868.154 1.33-.378 1.82-.952 1.022-1.233 1.372-2.564.84-4.105-.238-.7-.35-1.429-.56-2.129-.798-2.886-.784-2.9-2.675-5.142-.714-.84-1.428-1.681-1.904-2.689-.434-.925-1.106-1.597-1.947-2.144a32 32 0 0 1-1.792-1.288c-.616-.477-.784-1.695-.308-2.34.28-.392.574-.826.966-1.093.714-.49 1.218-1.162 1.807-1.779 1.47-1.555 2.072-3.194 1.358-5.323-.518-1.541.098-2.886 1.26-3.979.364-.336.742-.644 1.092-.98s.687-.687.995-1.065c.448-.56.462-1.443 1.274-1.709 1.05-.35 1.456.715 2.199 1.051.84.378 1.624.476 2.464.098.798-.35 1.485-.813 2.059-1.499.952-1.149 1.736-2.424 2.254-3.768.826-2.172 2.171-4.133 2.619-6.459.084-.476.28-.98.574-1.344 1.554-1.92 1.75-4.231 2.003-6.528.21-1.948 1.092-3.769 1.078-5.758 0-.35.126-.757.322-1.037.882-1.218.616-2.563.504-3.908-.196-2.466-.84-4.819-2.059-6.977-.504-.896-.77-1.793-.77-2.787-.014-2.088-.028-4.175-.028-6.248 0-.196.154-.378.252-.575.098.056.238.098.294.183.757 1.12 1.639 2.129 2.535 3.138.91 1.036.686 2.577 1.316 3.782.28.546.56 1.093.827 1.639.644 1.331 1.12 2.718 1.148 4.231 0 .252 0 .504.056.728.434 1.639.532 3.362 1.68 4.791.504.616.742 1.583.798 2.41.084 1.26.421 2.409.967 3.516.406.798.546 1.611.476 2.493-.028.365 0 .743.07 1.093.196.869.616 1.597 1.47 1.961.154.07.588-.098.588-.196.056-.476.028-.967 0-1.443-.014-.784.378-.98 1.177-.882.798.112 1.26.728 1.904 1.036.098.056.308.084.336.028.126-.182.322-.434.294-.616-.112-.869-.406-1.793-1.19-2.185-1.554-.757-1.848-2.578-3.193-3.461-.336-.91-.784-1.807-.994-2.745-.266-1.191-.336-2.424-.476-3.643-.042-.364-.028-.728-.028-1.106 0-.449.406-.995.868-1.037.588-.07 1.176-.098 1.764-.14.169-.616-.028-1.177-.322-1.695-2.17-3.825-4.033-7.831-6.749-11.333-.869-1.107-1.457-2.242-1.359-3.699.028-.588-.084-1.26-.35-1.779-.924-1.695-1.358-3.698-2.996-4.973-.617-.476-.673-1.289-1.023-1.933-.364-.672-1.008-1.051-1.778-1.135-.182-.014-.406.21-.574.365-.07.07-.098.252-.056.35.098.224.21.434.364.616 1.204 1.471 1.162 1.485.042 3.32-.126.196-.224.491-.168.687.126.462.266.952.532 1.358.756 1.177.966 2.508 1.176 3.825.028.196-.14.448-.28.63-.168.238-.644-.07-.728-.546-.126-.729-.224-1.443-.77-2.017-.35-.365-.588-.827-.532-1.331.112-1.135-.462-1.863-1.331-2.438-1.414-.952-2.968-1.709-4.285-2.815-.252-.211-.686-.295-1.036-.295-.616 0-1.218.112-1.834.126-.687 0-1.121.225-1.289.967-.182.841-.476 1.653-1.19 2.213-.07.056-.308 0-.35-.056-.476-.98-.924-1.975-1.386-2.955-.042-.099-.211-.253-.239-.239a3.2 3.2 0 0 0-.574.393c-.42.392-.336.854-.224 1.359.042.168-.126.462-.294.588-.21.154-.448.014-.546-.238-.336-.925-.644-1.849-.98-2.76-.322-.855-.742-1.037-1.723-.784-.35.098-.686.28-1.05.336-.35.056-.728 0-1.092-.028-.658-.07-1.148-.757-.924-1.303.14-.336.252-.687.42-1.009.588-1.078 1.204-2.129 1.806-3.194.672-1.176 1.387-2.353 1.541-3.712.294-2.48 1.148-4.735 2.24-6.962.742-1.513 1.4-3.138 1.078-4.932-.14-.756.084-1.484.519-2.087.7-.966.938-1.961.532-3.11-.168-.49.042-.966.308-1.387.616-.938 1.358-1.583 2.59-1.807 1.429-.252 2.787-.924 4.173-1.373a2.15 2.15 0 0 1 1.779.182c.63.365 1.204.281 1.554-.35.49-.882 1.358-1.233 2.157-1.064 1.414.294 2.618-.491 3.949-.505.182 0 .448-.266.518-.462.196-.574.28-1.191.462-1.779.182-.575.854-1.009 1.428-.939 1.695.196 3.389.393 5.084.631.336.056.672.294.952.518.14.112.21.406.182.588-.042.224-.28.393-.378.617-.252.532-.154.91.238 1.317.364.378.868.672 1.302.42 1.232-.757 2.717-1.135 3.585-2.438.308-.448.756-.532 1.288-.336.504.182.995.042 1.317-.378.434-.547 1.386-.771 1.218-1.681-.168-.925-1.008-.925-1.737-1.023-.126-.014-.238-.042-.364-.07a1.02 1.02 0 0 1-.798-.658c-.476-1.303-.602-2.62-.042-3.95.098-.225.126-.477.238-.701.518-1.009.616-2.073.588-3.208-.028-1.457.14-2.914.028-4.399-.084-1.05.491-1.877 1.527-2.27.798-.308 1.666-.49 2.408-.896.813-.434 1.583-.532 2.451-.224.518.182.91-.196 1.316-.448.406-.253.798-.085.854.294.098.854.211 1.695.253 2.55.042.812.462 1.386 1.106 1.793.7.448 1.498.714 2.142 1.274.084.084.49-.056.631-.196.238-.266.49-.588.56-.924.322-1.43.658-2.872.84-4.33.126-1.008.616-1.498 1.526-1.792.532-.168.518-.743.616-1.191-.07-.042-.154-.07-.224-.126-1.624-1.345-2.1-3.208-2.366-5.183 0-.098.07-.225.14-.323.476-.798 1.68-1.134 2.59-.728.266.126.533.644.364.925-.672 1.078-.504 2.1.056 3.138.701 1.288 1.513 2.521 1.359 4.09-.028.21.168.462.322.644.84 1.051.336 2.396.798 3.517-.21.882-.924 1.415-1.442 2.087-.07.098-.168.182-.252.266-.49.575-.7 1.191-.686 2.004 0 1.933.14 3.908-.729 5.743-.196.42-.182.967-.196 1.443-.084 1.835-.224 3.67-.168 5.505.056 1.541-.168 2.914-1.26 4.063-.238.252-.308.672-.532.953-.21.28-.504.504-.798.728-.995.771-1.079.827-.491 1.583.757.981.827 2.017.575 3.124-.126.588-.378 1.163-.602 1.723-.323.827-.351 1.653-.267 2.522.154 1.485.813 2.815 1.177 4.23 1.218 4.707 3.851 8.7 6.343 12.748.7 1.149 1.471 2.242 2.115 3.432.406.743.784 1.597 1.4 2.13.882.756 1.358 1.709 1.793 2.718s.798 2.045 1.19 3.081c.406 1.121 1.414 1.583 2.324 2.158.07.042.252-.042.337-.112.728-.561.798-1.485 1.218-2.228 1.078-1.905 1.134-3.88.42-6.009-.742-2.242-1.008-2.886 1.526-4.077.112-.056.21-.126.308-.182.392-.252.462-.504.238-.897-.308-.518-.686-1.022-.952-1.569-.21-.434-.42-.924-.42-1.387 0-1.092.084-2.199.238-3.278.112-.77.602-1.302 1.372-1.583.561-.21 1.121-.462 1.653-.756.49-.266.672-1.177.336-1.625-.518-.687-1.036-1.359-1.61-1.989-1.527-1.667-1.975-3.615-1.583-5.8.056-.322.42-.658.77-.602.238.028.476.14.715.154.728.042 1.428-.869 1.106-1.471-.462-.855-1.078-1.639-1.457-2.522-.35-.84-.854-1.092-1.694-.98-.182.028-.504-.154-.574-.323-.42-1.008-1.008-1.975-.448-3.152.14-.308.14-.728.084-1.078a2.26 2.26 0 0 0-.42-.995c-.49-.588-1.191-.84-1.919-.966-.196-.028-.476.14-.63.294-.224.238-.378.518-.56.784l.028.014c.028.07.042.07.056.126.07.014.14.028.14.042 0 .168-.07.126-.14-.042-.056 0-.112-.028-.154-.028.028-.028.042-.07.07-.112-.686-.336-1.106-.882-1.4-1.583-.533-1.289-.617-2.633-.519-3.978.155-2.116.071-4.16-1.078-6.024-.126-.196-.14-.462-.21-.7-.364-1.317.294-2.382 1.709-2.718.224-.056.49.07.728.056.728-.056.882-.14 1.022-.799.126-.602.196-1.19.644-1.68.238-.267.728-.323.896-.015.294.533.547 1.093.883 1.611.098.154.434.224.63.182.21-.042.462-.252.518-.434.182-.574.308-1.177.42-1.779.168-.882.672-1.583 1.246-2.213.77-.869 1.863-1.177 2.941-1.345.77-.126 1.386.406 1.989.826.602.42 1.176.883 1.764 1.331.196.14.392.322.616.392.336.112.714.154 1.064.197.336.041.715-.365.715-.673-.015-.854-.659-1.597-.435-2.493.21-.827.379-1.681.617-2.494.35-1.177.56-2.353.686-3.586.182-1.821.7-3.587 1.75-5.156.602-.91 1.064-1.905 1.499-2.913.672-1.555 1.722-2.928 2.996-4.063.476-.42 1.065-.616 1.695-.616.854 0 1.708.126 2.562.154.364 0 .742-.014 1.093-.126.196-.056.448-.309.462-.49.112-1.612.196-3.195-1.275-4.371-.35-.28-.49-.827-.77-1.233-.196-.294-.392-.7-.686-.813-1.372-.504-2.339-1.737-3.795-2.045 0 .028 0 .042.014.07l-.294.07.21-.168s.042.014.07.028c-.112-.448-.21-.896-.35-1.345-.28-.896-.77-1.54-1.834-1.457-.281.028-.491-.042-.603-.322-.084-.224-.126-.476-.238-.686-.476-1.065-.84-1.36-1.946-1.163-1.162.196-1.821-.42-2.465-1.163-.238-.28-.112-.84.21-.938.462-.14.939-.253 1.415-.379 1.386-.336 2.03-1.344 2.17-2.647.154-1.457.182-2.928.21-4.399 0-.476-.14-.967-.322-1.415-.224-.56-.63-1.065-.826-1.639-.322-.896-.882-1.429-1.835-1.597-.896-.154-1.54-.714-2.016-1.47-.196-.309-.322-.645-.126-1.023.168-.323.28-.673.448-1.01.308-.573.882-.63 1.05-.14.294.855.841 1.444 1.639 1.892 2.17 1.19 2.366 1.135 3.501-1.205.098-.224.168-.462.294-.672.434-.645 1.106-.953 1.834-1.12.546-.127.91.321 1.246.644.449.42.841.882 1.233 1.344.658.77 1.54.953 2.31.477.785-.49 1.541-.645 2.409-.575.616.056 1.218.154 1.834.14.476 0 .967-.126 1.443-.238.224-.056.448-.196.63-.364.168-.154.392-.42.364-.602-.154-1.177-.056-2.522-1.778-2.732-.519-.056-.729-.616-.855-1.107-.056-.224-.014-.49 0-.728.084-1.177-.154-2.144-1.274-2.816-.49-.294-.798-.896-1.176-1.373-.434-.56-.476-.798.07-1.205.966-.7 1.372-1.68 1.708-2.76.112-.378.084-.742-.168-1.022-1.008-1.177-1.372-2.55-1.33-4.076 0-.505-.21-.673-.672-.687-.238 0-.505.14-.729.084-1.288-.322-2.534-.84-3.865-1.009-.448-.056-.854-.462-1.288-.686-.742-.392-1.442-.252-2.016.308-.785.757-1.457 1.64-2.647 1.835-.196.028-.336.323-.504.519-.322.392-.392 1.036-.126 1.359.546.658 1.148 1.274 1.624 1.975.28.392.308.938.056 1.4-.098.183-.336.309-.546.42-.07.043-.294 0-.308-.041-.77-1.85-2.605-2.914-3.501-4.665-1.288-1.135-2.562-2.27-4.523-1.891-.686.126-1.498.126-2.156-.098-1.079-.378-2.143-.392-3.249-.42-1.345-.042-2.661-.183-3.963-.645-1.134-.42-2.409-.574-3.599-.098-.924.364-1.624.07-2.339-.532-.658-.56-1.47-.883-2.338-.995-2.661-.35-5.237-1.247-7.968-1.05a2.9 2.9 0 0 1-1.092-.113c-1.765-.56-3.431-.056-5 .589-1.134.462-2.268 1.12-3.459 1.148-1.344.042-2.632.533-3.99.435-.603-.042-1.205.084-1.807.168-.308.042-.392.238-.364.546.098 1.219 1.274 2.115.98 3.474-.042.196.406.645.7.743.939.308 1.877.616 2.535 1.387.714.84 1.372 1.709 2.045 2.577.266.35.21 1.065-.112 1.373-.365.336-.729.659-1.121.939-.616.448-1.316.434-1.596-.154-.714-1.527-1.975-2.088-3.529-2.242-.238-.028-.504-.056-.714-.168-.308-.168-.644-.364-.854-.644-.295-.378-.491-.84-.715-1.275-.14-.266-.07-.462.14-.644.813-.715.631-1.527.169-2.312-.505-.854-1.373-.939-2.255-.883-.476.029-1.246.771-1.26 1.205-.042.967-.028 1.947-.07 2.928a1.376 1.376 0 0 1-1.121 1.275c-1.204.182-2.45.238-3.627.56-.854.238-1.638.42-2.506.168a1 1 0 0 0-.7.042c-1.415.715-2.857 1.401-4.229 2.2-1.975 1.12-4.047 1.667-6.316 1.4-.49-.055-.896-.378-1.078-.882-.042-.112-.112-.224-.126-.336-.406-2.326-1.695-4.02-3.669-5.253-.21-.127-.35-.35-.546-.49-2.115-1.444-4.299-2.382-6.848-.967-.42.238-.924.294-1.386.462-1.961.728-3.851 1.555-5.56 2.788-.896.644-1.848 1.204-2.786 1.765-.658.392-1.541.168-1.835-.56-.364-.855-.924-1.415-1.736-1.794-.56-.252-1.12-.518-1.653-.798-.644-.336-1.134-.112-1.652.308-.574.448-.616.448-1.162 0-.392-.322-.77-.616-1.303-.462-.378.112-.784.126-1.022-.14-.532-.589-1.232-.715-1.932-.925-.266-.07-.266-.308-.098-.588.644-1.079.644-1.625.042-2.214-.084-.084-.154-.196-.252-.266-1.373-.868-2.801-1.527-4.495-1.135-.715.168-1.443.28-2.143.505-.462.154-.98.35-1.26.7-.813 1.023-1.625 1.12-2.885.729-1.246-.393-2.675-.323-4.005-.309-1.596.014-3.193.155-4.775.295s-3.151.35-4.719-.182c-.266-.098-.7.14-.995.322-.168.098-.252.392-.322.616-.028.084.098.252.196.294.561.238 1.135.42 1.681.687.196.098.336.336.462.546.126.196-.196.7-.546.84-.336.14-.714.197-1.036.365-.715.392-.981 1.05-.981 1.835 0 .63.49 1.205 1.121 1.26.476.043.952 0 1.428 0 0-.027 0-.07.028-.097l.056-.182-.056.28h-.014c-.14.574-.112 1.148.224 1.653.532.826 1.12 1.61 1.946 2.185.337.238.309.603.056.967-.224.336-.63.532-.91.322-.756-.546-1.526-.729-2.366-.182-.518.336-1.065.602-1.555.98-.63.49-1.274.659-2.044.49-.588-.125-1.219-.21-1.821-.125-.868.112-1.736.448-2.002 1.373-.294.98-.854 1.302-1.849 1.386-1.82.14-3.388-.308-4.691-1.597a.7.7 0 0 0-.308-.182c-.098-.014-.238 0-.322.07-.098.07-.182.197-.182.294-.07 1.135.252 2.172.686 3.209.574 1.358 1.079 2.731 1.261 4.216.042.406-.197.645-.673.589-.714-.099-1.414-.183-2.128-.435-2.171-.742-3.557-2.521-5.307-3.782-.056-.042 0-.238-.028-.35-.281-.967-.295-.967-1.121-.505-.77.435-1.106.435-1.61-.098-.224-.238-.308-.588-.462-.896-.028.014-.056.028-.098.042l-.084-.084c-.28.028-.546.042-.714-.294.098-.043.238-.14.28-.099.154.113.294.253.434.393h.154c0 .014 0 .028.014.042.406-.196.826-.364 1.19-.617.154-.112.266-.434.252-.644-.07-.897-.63-1.583-1.176-2.213-.392-.477-1.064-.533-1.695-.575-.518-.042-.644-.196-.49-.7.14-.477.35-.91-.056-1.331-.924-.967-1.82-1.961-2.786-2.872-.743-.714-4.047-1.723-5.14-1.653-.238.014-.518.028-.714.154-.518.35-.952.462-1.624.238-1.513-.49-3.109-.658-4.705-.308-.448.098-.883.378-1.275.659-.756.546-.952 1.148-.56 1.877.448.854.98 1.68 1.457 2.521.154.267.028.883-.239.981-1.47.574-2.912 1.205-4.411 1.667-.952.308-1.904.168-2.716-.616-.546-.519-.602-.435-1.219-.028-1.694 1.148-3.164.63-3.472-1.233-.042-.238 0-.49-.056-.729-.112-.574-.785-.994-1.387-.882-1.918.35-3.837.7-5.755 1.078-.714.14-1.429.323-2.087.617-.77.35-1.47.854-2.198 1.303-.756-.379-1.499-.757-2.255-1.135-.084-.042-.196-.028-.294-.014-.056.21-.098.42-.168.616-.504 1.303-1.946 1.71-2.871.77-.336-.335-.56-.77-.784-1.19-.196-.35-.462-.574-.826-.392-.574.28-1.106.35-1.736.252-.673-.112-1.149.294-1.359.939-.112.336-.196.7-.238 1.064-.042.519.196.967.672 1.177.406.182.841.252 1.275.364 0-.014 0-.042.014-.056.028-.028.07-.042.112-.07.014-.168.028-.35.098-.49.084-.154.294-.252.448-.364.014.084.07.182.056.266a.55.55 0 0 1-.154.294c-.14.112-.294.196-.448.294 0 .056 0 .112-.014.154a.4.4 0 0 1-.112-.028c-.098.336-.126.743-.364.939-.673.56-1.191 1.247-1.611 1.975-.826 1.429-2.114 1.947-3.669 2.06-.56.041-.798-.14-.546-.589.364-.658.504-1.359.574-2.101.084-.855 1.121-.897 1.401-1.597.14-.337.42-.729.336-1.023-.294-1.177.098-2.171.616-3.166.238-.448.406-.91.294-1.4-.112-.505-.042-.94.182-1.416.518-1.106 1.134-2.2 1.442-3.362.308-1.177.42-2.381.911-3.544.434-1.05.308-2.185-.14-3.236-.477-1.12-1.219-2.101-1.415-3.348-.028-.224-.196-.518-.378-.603-1.302-.588-1.918-1.849-2.815-2.83-.252-.28-.658-.252-.924.029-.224.238-.224 1.19-.826.364-.686-.925-1.61-1.485-2.577-2.017-.854-.463-1.792-.799-2.576-1.36-.798-.588-1.527-.728-2.353-.195-1.456.924-3.081 1.457-4.705 2.003-.35.112-.574.56-.434.896.14.337.364.645.49.981.238.644.014 1.135-.616 1.541-.714.448-1.513.07-1.597-.77-.056-.603 0-1.22-.042-1.822s-.098-1.204-.224-1.807c-.112-.56-.868-1.036-1.4-.952-.476.084-.952.21-1.414.336-.756.21-1.429-.028-2.115-.336-.518-.238-.798-.589-.672-1.121.28-1.19-.462-1.807-1.26-2.41-1.387.14-2.577-.7-3.907-.77-.322 0-.672.238-.967.434a1.44 1.44 0 0 0-.476.56c-1.008 2.004-1.498 4.175-1.358 6.389.084 1.372-.014 2.984 1.554 3.88.729.42.477 1.345.729 2.017.294.813.21.925-.434.981-.855.07-1.723.042-2.507.476-.35.196-.532.476-.476.883.042.35.252.784.112 1.05-.364.77-.84 1.485-1.317 2.2-.126.182-.364.336-.588.406-.784.294-1.582.56-2.38.799-.196.056-.322-.169-.252-.477.112-.462.294-.924.406-1.387s-.364-.91-.882-.882c-.771.042-1.513.21-1.723 1.065-.126.532-.294.882-.896.924-.49.028-.966.168-1.456.182-.813.028-1.331.56-1.849 1.079-.644.658-.686 1.05-.028 1.891.28.364.252.77-.028.925-.938.56-1.862 1.176-2.843 1.625-.896.406-1.764.742-2.38 1.597-.574.77-1.485 1.233-1.807 2.241-.224.7-.7 1.345-1.456 1.555-1.008.28-.784 1.457-1.526 1.905-.448.266-.644.715-.869 1.149-.434.855-.154 1.653 0 2.494.098.546.393.798.785 1.106.84.687 1.638 1.387 2.73 1.765 1.135.407 2.269.939 3.081 1.92.14.168.21.462.168.672a.98.98 0 0 1-.392.574c-.518.294-.574-.168-.686-.49-.14-.364-.336-.672-.784-.616-.476.056-1.079 0-1.415.28-1.176.938-2.562 1.345-3.893 1.905a34 34 0 0 1-4.159 1.429c-.476.126-.952.238-1.4.406-1.33.49-1.736 1.555-1.078 2.9.266.546.588 1.079.98 1.541.56.672.98 1.373 1.12 2.27.07.476.266.952.532 1.358a3 3 0 0 0 1.037.98c.896.477 1.918.309 2.884.407.771.757 1.541 1.527 2.325 2.27.168.154.448.168.672.266.56.238 1.12.476 1.666.742.449.224.827.56.911 1.079.252 1.583.7 3.096 1.61 4.44.238.35-.042.673-.392.87-.406.237-.826.476-1.232.714.014.028.042.07.056.098-.056.084-.126.168-.168.266-.042.084-.042.168-.07.252.056-.21.112-.406.154-.616h.028c-.098-.182-.182-.379-.308-.533-1.009-1.275-1.261-2.605-.434-4.076.112-.196.084-.477.126-.715.084-.686-.617-1.513-1.303-1.47a13 13 0 0 0-1.806.224c-1.148.21-2.171.041-3.067-.799-.532-.49-1.12-.967-1.764-1.303-1.079-.56-2.185-1.134-3.347-1.429-1.19-.294-2.297-.742-3.459-1.092-.28-.085-.756.07-.994.28-.56.476-.925 1.135-.953 1.891 0 .196.169.49.337.574.322.168.7.21 1.05.309a.6.6 0 0 0-.098-.084l.154-.197-.056.28c.224.225.434.463.7.603.308.168.714.196 1.05.336.42.182.574.84.336 1.247-.196.364-.56.532-.924.434-.462-.112-.882-.35-1.316-.56-.336-.154-.63-.434-.98-.49a1.37 1.37 0 0 0-1.275.56c-.196.266-.35.742-.238.994.602 1.387 1.499 2.48 3.025 2.984.826.267 1.624.519 2.493.575.35.028.7.168 1.036.28.098.028.182.168.224.28.084.266-.084.462-.336.336-.56-.266-1.121-.518-1.751-.42-1.106.154-2.198.014-3.291-.098-.63-.07-1.176-.308-1.47-.939-.098-.224-.182-.462-.308-.658-.756-1.26-1.442-2.522-1.498-4.077-.042-1.246-.602-2.367-1.331-3.376-.21-.28-.532-.49-.812-.714-.07-.056-.224-.042-.308 0-.098.056-.238.21-.21.266.266.939.574 1.863.84 2.802.196.742.112 1.457-.322 2.115-.14.21-.252.42-.42.602-.588.673-.952 1.387-.672 2.34.252.812-.294 1.779.224 2.521.49.687 1.176 1.233 1.792 1.836.435.42.869.854 1.331 1.26.686.603 1.05 1.331 1.036 2.256 0 .98-.014 1.947.112 2.928.252 1.89 1.386 3.376 2.059 5.07.196.491.728.631 1.246.603.994-.042 1.904-.21 2.618-1.064.799-.953 1.751-.603 2.661-.112.098.055.224.182.238.266 0 .084-.14.182-.238.252-.994.714-2.016 1.387-2.983 2.143-.882.7-1.036 2.13-.364 2.998.378.49.855.897 1.205 1.387.504.742.742 1.597.378 2.451-.49 1.15-.7 2.312-.686 3.559 0 .574-.211 1.233-.533 1.723-.742 1.12-1.624 2.143-1.89 3.516-.028.14-.406.336-.602.308a116 116 0 0 1-4.355-.602c-.224-.028-.574-.154-.602-.294-.084-.323-.028-.687-.014-1.037-.014 0-.028-.014-.042-.028-.267-.014-.295-.084-.07-.224.042.07.084.14.126.196v.042c.308.168.616.35.938.476 1.246.519 2.156.154 2.674-1.022.939-2.144 1.429-4.427 1.849-6.71.07-.337.014-.771-.14-1.065-.49-.897-.7-1.807-.504-2.83.126-.645-.196-1.19-.728-1.583-.491-.364-1.009-.715-1.485-1.079-.7-.532-1.176-1.218-1.456-2.073-.896-2.802-1.905-5.561-2.689-8.391-.476-1.737-1.274-3.124-2.73-4.189-.729-.532-1.107-1.289-1.079-2.213.07-2.466-.28-4.89-.854-7.285-.112-.49-.434-.896-.91-1.078-1.849-.715-3.711-1.29-5.728-.603-.434.14-.994-.112-1.442 0-.294.07-.644.42-.714.7-.14.589-.14 1.22-.126 1.822.028 1.96.098 3.922.154 5.883.028 1.009-.168 1.948-.882 2.718-.785.869-1.065 1.877-1.009 3.04.028.785.098 1.443.799 1.92.616.42 1.204 1.008 1.316 1.708.168 1.05.924 2.046.35 3.194a.9.9 0 0 0 0 .715c.504.98 1.036 1.947 1.596 2.885.042.085.449.043.617-.055.602-.35 1.176-.42 1.638.154.938 1.134 1.89 2.241 3.375 2.703.168.056.308.406.322.617.014.602-.028 1.218-.098 1.82-.042.393-.504.59-.826.365-.715-.49-1.401-.98-2.115-1.47-.504-.351-.98-.743-1.526-.995-.882-.407-1.835-.687-2.731-1.08-.784-.321-1.54-.714-2.31-1.078-1.163.196-1.667-.91-2.535-1.317-1.709-.798-3.417-1.316-5.321-1.008a4.3 4.3 0 0 1-.729.084c-2.114-.042-4.131-.337-5.797-1.835-.812-.729-1.764-1.29-2.661-1.934-.238-.168-.784.028-.966.323-.056.098-.14.196-.182.308-.35 1.036-.042 1.905.784 2.605.925.785 2.325.827 3.053 1.948.098.168.434.21.672.252.518.098.91.378 1.218.77a91 91 0 0 1 1.975 2.648.98.98 0 0 1-.154 1.33c-.742.617-1.638 1.051-1.905 2.088-.014.07-.224.168-.266.14-.182-.112-.434-.252-.504-.434-.154-.448-.182-.953-.35-1.401-.224-.602-.994-.953-1.498-.742-.882.378-1.667 1.05-2.717.896a.41.41 0 0 0-.294.182c-.392.953-1.162 1.149-2.086 1.065-.911-.07-1.807.196-2.353.84-.672.813-1.666.953-2.451 1.485-.252.168-.686.042-1.036.056 0-.224-.028-.462 0-.686.196-1.023-.154-1.85-.798-2.592-.812-.084-1.428.098-1.722.98-.056.183-.323.435-.477.421-.756-.042-.938.729-1.456.953-.56.238-1.176.322-1.764.462-.869.196-1.513.7-2.115 1.373-1.372 1.555-2.773 3.11-4.579 4.189-.462.28-.672.658-.756 1.176a16 16 0 0 1-.336 1.807c-.056.225-.238.435-.392.589-1.009.952-2.969 1.036-3.683.196-.476-.56-1.009-1.065-1.499-1.611-.448-.49-.434-1.247.07-1.625.575-.434 1.233-.785 1.835-1.177.378-.238.476-.924.168-1.303-.462-.56-1.008-1.064-1.414-1.667-.771-1.148-1.877-1.625-3.165-1.387-.994.182-1.919.112-2.885-.084-.098-.014-.224.07-.308.154-.182.169-.196.435.042.617 1.736 1.345 2.213 3.138 1.876 5.225-.084.476-.14.967-.14 1.457 0 .504.154 1.009.631 1.233.91.434 1.162 1.205 1.148 2.115 0 .49-.056.967-.126 1.457-.056.476-.616.925-1.036.827-.715-.155-1.443-.309-2.143-.505-1.036-.294-1.904-.224-2.591.757-.35.49-.798.938-1.302 1.261-.742.49-1.232 1.162-1.736 1.849-1.107 1.485-1.821 2.045.028 4.09.154.182.266.406.364.631.224.504.014.952-.252 1.373-.28.434-.883.672-1.261.462-1.708-.939-3.683-1.345-5.209-2.648-.266-.224-.686-.238-1.036-.35-.308-.098-.784.098-.91.42-.196.448-.378.897-.561 1.359-.21.504-.07.995.239 1.373.714.854 1.498 1.625 2.716 1.667.224 0 .462.14.672.252.378.196.448.56.434.939-.014.574-.686 1.162-1.232 1.064-1.204-.21-2.422-.406-3.235-1.513-.462-.63-1.218-.77-1.918-.966-.504-.14-.868-.491-.98-.995-.238-1.079-.56-2.129-1.177-3.054-.434-.644-.364-1.345-.266-2.101.252-1.821-.294-2.76-1.946-3.474-.686-.294-1.302-.547-1.793-1.163-.504-.63-1.358-.939-1.638-1.765h-.14c0-.07-.056-.112-.07-.168a.88.88 0 0 1-.476-.477c-.07-.013-.098-.07-.182-.07v-.196l.098.112c0 .07.056.099.084.154a.68.68 0 0 1 .476.477c.056.028.098.07.168.084 0 .042.042.056.042.098 1.078 0 2.045.406 3.025.826a40 40 0 0 0 8.038 2.382c2.114.406 4.145.154 6.119-.686.336-.141.686-.323.924-.575 1.205-1.247 2.143-2.675 2.367-4.455.056-.462.014-1.05-.238-1.415-.742-1.092-1.274-2.381-2.605-2.997-.532-.253-.952-.757-1.386-1.177-.532-.518-1.078-.813-1.862-.967a7.06 7.06 0 0 1-3.235-1.61c-.91-.8-1.961-1.472-2.997-2.116-2.983-1.85-3.837-2.087-7.24-2.157-.49 0-.966.182-1.442.168a9 9 0 0 1-1.807-.253c-.532-.126-.308-.49-.182-.826.154-.378.07-.757-.238-.995-.378-.294-.812-.518-1.246-.742-.476-.238-.952-.238-1.33.168-.546.56-1.135.925-1.947.588-.714-.308-1.414-.224-2.156-.112-.294.042-.672-.21-.939-.406-.168-.126-.252-.406-.308-.644-.056-.252.14-.393.449-.393.63 0 1.204-.14 1.708-.546.476-.378.952-.77 1.428-1.149.266-.21.154-.728-.168-.924-1.568-.98-3.319-1.513-5.041-2.102-.252-.084-.658.197-.952.393-.196.126-.308.378-.448.574-.182.266-.35.35-.504.196a.46.46 0 0 1-.141-.322c0-.364.071-.728.057-1.093 0-.644-.407-1.176-.995-1.373-.518-.154-.952.028-1.344.365-.378.322-.672.672-.742 1.204-.042.35-.154.729-.322 1.037-.098.168-.378.252-.588.336-.042.014-.211-.154-.239-.252-.126-.63-.294-1.149-1.134-1.12-.448.013-.434-.463-.518-.785-.196-.855-.966-1.079-1.302-.603-.672.94-1.975.953-2.563 1.92-.994.126-1.638.938-2.548 1.233a2 2 0 0 1-.323.055v.07l-.154.155.112-.225h.042a.9.9 0 0 0-.056-.574c-.098-.028-.196-.07-.294-.084-1.554-.056-1.722.126-1.386 1.527.042.21.07.42.098.63h.098l.126.183-.224-.099v-.084c-1.484-.126-2.717.659-4.005 1.191-.112.042-.14.434-.112.659.028.35.266.714.182 1.008-.126.42-.616.182-.938.28l-1.723.505.084-.056h-.07c.028-.337.098-.687.056-1.009-.056-.406-.42-.602-.784-.63-.154 0-.476.28-.462.364.126.434.308.855.49 1.26h-.07l.098.057c-1.05-.098-1.792.336-2.226 1.26h.042c-.14-.084.252.407-.098.085.014-.028.042-.056.056-.085h-1.065c-.658.043-1.162.323-1.4.967-.28.743-.308 1.429.392 1.975.196.154.406.28.56.449.252.252.154.672-.21.924-.392.266-.784.645-1.316.379-.588-.28-1.176-.197-1.793-.099-.392.056-.714-.378-.588-.714.21-.574.463-1.135.659-1.695.013-.056-.099-.21-.197-.266-.07-.042-.238-.056-.294 0-.868.854-1.736 1.695-2.562 2.591-.294.309-.028.673.182.967.35.49.21.896-.21 1.275-.154.126-.224.336-.336.532.448 0 .896.07 1.316 0 .84-.14 1.666-.434 2.507-.546.462-.056.966.098 1.442.182.084 0 .154.098.238.14-.084.084-.168.182-.28.238-.434.224-.868.462-1.316.644-.224.099-.477.113-.715.155-.644.112-.686.532-.518 1.05-.364.267-.896.463-1.064.813-.182.392 0 .938-.042 1.4-.028.21-.252.407-.378.617-.196.308-.546.63-.532.925.07.756-.308 1.162-.868 1.428-.686.337-1.19.715-1.373 1.541-.154.701-.784 1.303-.868 1.99-.084.658-.098 1.134-.812 1.387-.364.126-.546.476-.448.882.168.729.238 1.415-.042 2.144-.266.672-.322 1.414-.504 2.129-.126.518-.49.826-.98.994-.35.127-.715.197-1.037.365-.182.098-.378.336-.392.518-.028.616-.042 1.177-.672 1.569-1.302.799-2.143 1.975-2.717 3.362-.14.336-.266.687-.462.995-.266.434-.686.7-1.218.644-.476-.042-.952-.154-1.443-.21a.5.5 0 0 0-.322.154c-.196.196-.196.434 0 .673.07.098.182.168.239.266.196.35.126.882-.169.91-1.12.084-1.778 1.317-2.982 1.135-.77.56-1.555 1.121-2.325 1.681-.07.056-.084.238-.07.35.154.827-.336 1.037-1.022 1.149-.476.084-.952.196-1.373.42-.294.154-.574.477-.672.771-.14.448-.056.952-.168 1.415-.28 1.302.252 2.675-.392 3.936-.042.084.042.238.07.35.238.953.953 1.653 1.33 2.522.253.56.547 1.107.687 1.695.07.308-.07.728-.252 1.009-.252.406-.644.714-.953 1.092-.168.224-.028.855.21.995.309.168.659.28.98.434.407.196.547.561.323.841-.294.378-.644.728-.938 1.106-.239.309-.126 1.107.14 1.373 1.232 1.219 2.646 2.158 4.27 2.76.225.084.505.168.7.112 1.5-.476 3.124-.686 4.104-2.171.392-.603.868-1.205 1.442-1.639.952-.715 2.31-.869 2.885-2.13.014-.028.224-.042.28 0 .35.323.854.617.994 1.023.224.672.154 1.443.322 2.143.21.827.714 1.611.77 2.424.085 1.415.757 2.521 1.387 3.712.574 1.079 1.12 2.172 1.876 3.138.28.35.084.673-.028 1.023-.112.322-.196.644-.294.966h.07c.014.084 0 .154 0 .225.196.252.42.476.518.756.854 2.48 1.289 1.821 3.32 1.611.545-.056.811-.476.923-.981.182-.826.742-1.218 1.527-1.344.364-.057.728-.127 1.092-.099 1.036.057 1.947-.126 2.437-1.19 1.666.322 1.596-1.023 1.89-1.99.07-.224.056-.49.028-.728-.042-.42-.266-.63-.714-.518-.112.028-.266.042-.35-.014-.084-.042-.154-.196-.154-.294.028-1.219-.056-2.438.364-3.629.196-.56.308-1.191.308-1.793 0-1.121.616-1.807 1.47-2.367.602-.407 1.303-.701 1.849-1.177.644-.56 1.148-1.247 1.064-2.214-.042-.462.154-.952.154-1.428 0-.351-.056-.757-.252-1.037-.812-1.219-1.61-2.438-3.039-3.068-.742-.322-1.036-1.051-1.022-1.821.056-1.947.14-3.909.266-5.856.014-.35.21-.7.392-1.008 1.05-1.653 2.213-3.18 3.893-4.259.812-.518 1.54-1.191 2.241-1.849 1.4-1.331 1.358-1.359 2.226-3.264.266-.589.294-1.135.182-1.765-.28-1.429.042-3.082.672-4.189.645-1.135 1.401-2.031 2.899-1.667 1.751-.266 3.403.098 4.943.939.448.252.686 1.358.28 1.597-.546.322-.994.574-1.008 1.344 0 .449-.266.953-.532 1.331-1.204 1.695-2.241 3.502-3.655 5.043-.42.449-.826.883-1.036 1.485-.28.841-.91 1.051-1.737.967-.448-.042-.714.21-.658.644.084.631-.028 1.191-.21 1.793-.14.449-.084.967-.014 1.429.07.477.308.925.406 1.401.406 1.905.967 3.783.616 5.772-.07.35.014.728.056 1.092.071.659.379 1.121.995 1.401.448.196.84.505 1.246.771v-.028l-.07-.07.238-.112-.14.182c.28.196.574.476.84.448.854-.084 1.345.252 1.737.967.42.77 1.162.84 1.904.644.7-.196 1.372-.49 2.031-.798 2.226-1.037 4.537-1.681 7.029-1.653.855 0 1.695-.14 2.549-.183.224 0 .602.071.644.197.42 1.134 1.639.882 2.395 1.428.098.071.224.099.308.183.056.056.084.238.07.252-.406.266-.826.546-1.26.728-.673.294-1.457.491-1.849 1.121-.826 1.331-1.862 1.275-3.123.77-.784-.308-1.638-.434-2.478-.602-.35-.07-.742-.126-1.065-.042a47 47 0 0 0-3.472 1.079c-1.219.448-2.087 1.232-2.199 2.633-.056.701-.518 1.065-1.148 1.247-.462.14-.952.196-1.415.336-.938.28-1.078.939-.448 1.99.042.07.098.14.154.21 1.065-.014 1.751-.729 2.535-1.303.546-.406.756-.378 1.288.028.392.294.742.644 1.163.882.364.197.602.491.616.827a34 34 0 0 1-.014 2.928c-.028.546-.462.91-.925 1.036-.294.085-.756-.084-.98-.294-.532-.504-.952-1.12-1.428-1.681-.518-.616-.854-.7-1.596-.49-.995.28-1.779.784-2.157 1.807-.252.686-.574 1.359-.812 2.045-.322.939-.476 1.878-.266 2.886.238 1.205.392 2.41.532 3.628.014.183-.168.491-.35.575-.546.266-1.135.448-1.709.644-.63.224-.952.617-1.078 1.317-.182 1.191-2.437 1.331-3.025.434a9 9 0 0 1-.35-.644c-.308-.645-.868-.855-1.498-.813-1.232.084-2.409.393-3.487 1.023-1.47.855-2.94 1.751-4.523 2.424-.518.224-.868.854-1.358 1.176-.266.168-.827.238-1.009.084a11 11 0 0 1-1.666-1.863c-.168-.252 0-.714-.042-1.079-.028-.322-.588-.588-.854-.378-.574.435-1.107.869-1.933.911-1.12.07-2.03.798-2.996 1.331-.14.084-.505 0-.63-.14-.407-.449-.743-.953-1.387-1.121-.574-.14-1.26-.224-1.666-.603-.407-.378-.547-1.064-.743-1.639-.056-.168.056-.42.14-.616.029-.056.225-.098.309-.056.994.434 2.072.574 2.968 1.373.98.882 2.073.476 2.703-.687.812-1.484 1.26-3.025 1.092-4.721-.042-.042-.07-.084-.112-.14 0-.028.014-.056.028-.084-1.288-.098-2.296.519-3.207 1.345-.322.294-.42.897-.168 1.359.238.42.56.799.785 1.233.084.154 0 .532-.098.588-.168.084-.435-.014-.645-.07a.9.9 0 0 1-.308-.182c-.84-.7-1.05-1.961-2.17-2.437-.098-.043-.084-.435-.056-.659.14-.896.602-1.541 1.47-1.891.28-.112.266-.406.07-.63-.084-.099-.14-.211-.252-.253-1.204-.63-1.428-1.583-.938-2.773.238-.575.406-1.149.322-1.779-.042-.337-.406-.743-.7-.673-.238.056-.504.042-.714.154-1.387.757-2.395 2.087-3.963 2.564-.168.042-.337.392-.337.602 0 1.429-1.092 2.718-.49 4.217.07.168-.112.448-.196.672-.182.505-.07.939.266 1.345.239.28.546.574.602.897.295 1.555.84 3.04.897 4.637.028.84-1.135 2.045-1.89 1.821-.995-.295-1.891-.252-2.83.252a7.9 7.9 0 0 1-2.408.854c-1.12.196-2.044.771-3.039 1.247-.938.448-1.498 1.121-1.834 2.144-1.064 3.264-1.092 3.264-3.683 5.225-.574.434-1.288.672-1.89 1.078-.295.197-.56.505-.7.813-.197.434-.267.939-.42 1.401-.239.756-.771 1.233-1.513 1.457-.35.112-.714.168-1.064.28-.603.196-1.065.518-1.387 1.121-.42.77-1.148.784-1.918.686-.63-.084-1.12-.392-1.61-.784-.253-.197-.659-.225-1.009-.253s-.798.421-.742.687c.154.714.336 1.415.462 2.129.098.504-.308.897-.868.925-.868.042-1.68 0-2.493-.406-.406-.197-.952-.281-1.414-.197-.952.183-1.89.491-2.829.771-.308.084-.602.546-.546.868.182 1.219.252 2.452 1.974 2.564.7.042 1.33.616 2.031.799 1.19.308 1.974 1.05 2.31 2.143.35 1.135.98 1.975 1.947 2.563.728.449.938 1.107.882 1.864-.126 1.947-.252 3.894-.462 5.827-.07.715-.35 1.415-.588 2.116-.21.616-1.162 1.246-1.778.98-1.275-.56-2.69.126-3.935-.546-.294-.154-.757-.196-1.065-.084-1.232.42-2.436.196-3.599-.168-1.302-.407-2.576-.687-3.934-.393-.35.071-.757.071-1.093-.07-1.498-.574-2.842-.602-3.977.771-.196.238-.672.224-1.022.35-.224.084-.448.182-.672.28-.42.196-.742.855-.56 1.233.63 1.219 1.008 2.466.686 3.838-.028.113.042.239.07.365.504 2.759-.042 5.351-1.274 7.817-.323.658-.603 1.33-.855 2.017-.168.476-.196 1.009.126 1.401 1.065 1.289 1.513 2.731 1.303 4.399-.028.238 0 .504.07.728.084.224.224.518.392.574.91.295 1.792.813 2.829.547.462-.126.966-.168 1.456-.168.63 0 1.204.252 1.568.798.476.715.869 1.471 1.359 2.171.49.715 1.582.995 2.296.603.532-.294 1.079-.589 1.583-.939 1.26-.868 2.632-1.176 4.173-1.036 1.092.098 2.198-.028 3.304-.07.659-.014 1.19-.295 1.555-.827a3.12 3.12 0 0 1 1.75-1.261c.756-.224 1.233-.672 1.499-1.457a6.55 6.55 0 0 1 1.75-2.759c.392-.365.588-.897.266-1.317-1.386-1.779-.602-3.166.686-4.511.336-.35.658-.729.995-1.079.98-1.078 1.848-2.297 3.514-2.367 1.653-.729 2.941-1.737 3.025-3.755.028-.728.154-1.456.266-2.171.056-.364.14-.714.252-1.065.28-.882 1.415-1.653 2.269-1.471 1.638.379 3.403.351 4.859 1.457.63.477 1.498.309 2.002-.294.967-1.163 2.101-2.003 3.571-2.451.434-.14.826-.533 1.149-.883.868-.952 1.848-1.037 2.996-.574 1.065.434 1.919 1.05 2.395 2.129.406.883.826 1.751 1.246 2.634 1.485 1.415 3.025 2.759 4.3 4.384.938 1.191 2.156 2.06 3.584 2.424 1.75.448 2.857 1.807 4.285 2.676.448.938 1.233 1.485 2.115 1.961.294.168.602.462.728.756.364.911.644 1.85.938 2.788.07.21.042.49-.028.701-.378 1.036-.7 1.975-2.114 2.199-2.17.35-4.328.742-6.554.476-.336-.042-.714.126-1.036.28-.182.098-.35.351-.392.561s-.014.574.126.672c.7.477 1.428.925 2.184 1.331 1.499.813 3.011 1.611 4.51 2.396.251.126.797-.113.924-.421.14-.336.308-.686.322-1.036.014-.477-.14-.967-.14-1.457 0-.729.63-1.345 1.442-1.289.84.07 1.442-.182 1.848-.883.617-1.05 1.219-2.101 1.807-3.166.392-.7.336-1.401-.084-2.087-.196-.308-.49-.602-.546-.939-.056-.462 0-.966.126-1.414.224-.729 1.176-1.065 1.806-.631.588.406 1.078.953 1.653 1.387.112.084.504-.014.616-.154.518-.644.504-1.653-.056-1.989-1.891-1.121-3.445-2.788-5.616-3.432-.742-.211-.868-.715-.924-1.359-.014-.196-.21-.491-.378-.547-.448-.168-.938-.294-1.414-.308-1.205-.07-2.087-.672-2.801-1.555-.546-.658-1.12-1.345-1.428-2.115-.56-1.443-1.653-2.424-2.703-3.432-.434-.421-1.008-.687-1.47-1.093-.575-.504-.855-1.191-.827-1.961.028-.603.098-1.205.14-1.821.028-.407.28-.687.617-.841.546-.266 1.12-.49 1.708-.658.154-.042.518.154.574.308.182.574.21 1.191.392 1.765.154.462.532.995 1.05.855.827-.225 1.289.616 2.045.518.574-.07.994.322 1.12.784.434 1.653 1.61 2.69 2.927 3.601 1.092.742 2.072 1.723 3.515 1.765.574.448 1.064 1.036 1.834 1.162.911.155 1.527.757 2.115 1.373.672.701 1.274 1.485 1.946 2.2.364.392.49.784.434 1.317-.07.728 0 1.47-.07 2.199-.112 1.289.056 2.437 1.205 3.25.084.056.196.238.168.308-.364 1.079.406 1.513 1.092 2.045.574.449 1.05 1.023 1.554 1.541.14 1.093 1.317 1.709 1.359 2.858.336.308.336.406 0 .687v.812c.98.701 1.848 1.457 2.058 2.774.042.28.434.588.742.742.883.421 1.821.701 2.829.617.434-.028.77-.252.602-.659-.546-1.218.784-1.947.714-3.026 0-.042.224-.154.308-.126.939.337 1.569-.448 2.367-.616.252-.056.336-.294.266-.574-.266-.953-.588-1.878-1.484-2.452-.406-.266-.924-.476-1.177-.84-.91-1.303-1.736-2.648-2.576-4.007-.112-.182-.084-.476-.084-.714 0-.113.042-.239.098-.351.14-.266.35-.294.602-.07.182.168.336.365.518.519 1.05.91 2.045.672 2.535-.603.168-.448.322-.91.56-1.331.084-.154.462-.308.602-.238.476.196.91.336 1.344-.042.631-.532 1.373-.476 2.101-.364 1.036.154 1.778.995 1.792 2.003 0 1.471 0 2.928-.462 4.357-.098.294.294.728.644.742.364.014.729 0 1.093-.014.126 0 .252-.028.364 0 .098.042.252.155.252.239.014.224.042.504-.07.686-.434.7-1.289.588-1.919.939a.7.7 0 0 0-.266.238c-.126.266-.042.49.21.644.42.238.854.462 1.289.701.322.182.686.308.952.56.406.392-.56.826-.098 1.149.602.434 1.246.84 1.54 1.527.322.728.952 1.092 1.471 1.611.364.364.826.462 1.344.336 1.064-.266 1.904.056 2.562.966.211.281.561.477.869.659.21.126.476.238.686.224 1.204-.14 2.492-.154 3.319-1.247.63-.84 1.428-.812 2.296-.588.84.224 1.597.658 2.199 1.289.966 1.008 2.142 1.064 3.403.854 1.372-.238 2.52-.84 3.444-1.905a1.14 1.14 0 0 1 1.345-.322c.896.392 1.862.294 2.814.392 0-.028 0-.056.028-.084l.084-.112-.028.196h-.084c-.462 1.275-.378 2.606-.168 3.895a8.1 8.1 0 0 1-.238 3.628c-.28.938-.616 1.863-.966 2.774-.476 1.246-1.134 2.423-1.386 3.782-.224 1.219-.924 2.255-1.723 3.194-.336.378-.714.714-1.232.714-1.82 0-3.669.267-5.419-.546-.644-.294-1.429-.294-2.143-.364-1.638-.168-3.151.266-4.565 1.092-.672.393-1.358.421-2.114.239-2.619-.617-5.182-1.415-7.87-1.765-.953-.127-2.031-.267-2.801-.771-1.19-.784-2.479-.995-3.795-1.247-1.12-.196-2.1-.616-2.899-1.457-.308-.336-.798-.602-1.26-.714-2.072-.518-4.117-.476-6.105.406-1.275.56-2.409 2.41-1.975 3.965.126.476.308.924.406 1.4.098.505-.084.967-.406 1.359a7 7 0 0 1-.756.813c-.672.616-1.695.742-2.381.294-.42-.266-.798-.56-1.204-.854-.602-.421-1.176-.883-1.806-1.247-1.513-.841-3.067-1.499-4.86-1.499-.798 0-1.372-.491-1.694-1.219-.196-.448-.336-.911-.49-1.373-.252-.742-.742-1.247-1.47-1.541-2.059-.798-4.16-1.485-6.428-1.261-1.302.126-2.38-.476-3.487-.952-.112-.056-.252-.084-.322-.168-.798-.995-1.89-1.471-3.039-1.877-.504-.183-.714-1.233-.35-1.597.504-.519 1.078-.995 1.582-1.527.743-.813.799-1.794.42-2.76-.223-.547-.672-1.009-.966-1.527-.112-.182-.14-.49-.07-.701.266-.672.603-1.33.897-2.003.14-.322-.183-.77-.603-.658-.616.154-1.19.196-1.638-.392-.7-.939-1.68-.925-2.66-.673-.939.238-1.85.616-2.801.841-.588.14-1.205.084-1.807.126-.896-.701-1.932.238-2.828-.224-1.05-.547-1.877.252-2.815.35-.714.084-1.47.112-2.185 0-1.848-.28-3.669-.266-5.447.294-.966.294-1.947.238-2.913.266-.868.028-1.68.196-2.464.603-1.303.672-2.619 1.316-3.963 1.877-1.023.42-2.017.798-2.857 1.583-.98.91-2.268 1.022-3.445.504-.938-.406-1.82-.56-2.828-.448-.967.112-1.961.098-2.927 0-.448-.042-.868-.379-1.275-.631-.196-.126-.322-.364-.49-.546-.952-1.009-1.96-.771-2.436.546-.252.687-.574 1.359-.728 2.074-.379 1.709-1.485 2.731-2.97 3.502-1.302.672-2.562 1.429-3.808 2.213-1.148.729-2.255 1.485-2.283 3.082 0 .631-.49 1.107-.854 1.583-.616.813-.91 1.709-.826 2.746.056.728.042 1.471.07 2.199 0 .631-.182 1.205-.546 1.709-.504.687-.966 1.415-1.513 2.074-.294.378-.672.7-1.064.966-.602.42-1.274.715-1.862 1.163-.799.616-1.667 1.009-2.675 1.107-.924.098-1.554.644-2.086 1.358-.295.393-.63.771-.827 1.205-.42.939-1.092 1.583-2.002 2.06-.994.532-1.54 1.456-2.1 2.451-.953 1.695-1.793 3.488-3.291 4.819-.35.322-.617.771-.827 1.205-.896 1.877-1.834 3.726-3.094 5.393-.533.715-.687 1.555-.799 2.41-.14 1.064.056 1.933 1.023 2.549.826.533 1.078 1.387.784 2.256-.28.854-.322 1.597-.084 2.479.602 2.158.714 4.343-.392 6.444-.112.211-.168.463-.21.701-.42 2.185-1.023 4.286-2.703 5.897-.126.127-.14.505-.042.673.35.644.77 1.247 1.176 1.863.42.644.658 1.317.294 2.073-.532 1.107-.168 2.172.252 3.194.337.841 1.023 1.373 1.779 1.78.63.336 1.344.532 2.016.784v-.07l.112-.154-.084.238h-.028c0 .756.266 1.401.925 1.807.658.406 1.092.939 1.274 1.695.112.504.49.855.938 1.065 1.036.476 1.82 1.233 2.535 2.087.308.364.658.841.658 1.275.028 1.555.784 2.816 1.456 4.119.7 1.344 1.709 2.381 3.151 2.969 1.022.421 1.89 1.037 2.759 1.752 1.974 1.639 3.893 3.362 6.077 4.735a14 14 0 0 0 3.333 1.512 1.84 1.84 0 0 0 1.064-.028c.799-.294 1.583-.658 2.367-1.008 1.358-.617 2.758-.953 4.27-.883.967.042 1.961-.042 2.928-.182 1.484-.21 2.884-.056 4.229.631.322.154.686.252 1.05.35a3.35 3.35 0 0 0 2.156-.028c.813-.28 1.653-.477 2.451-.771.686-.238 1.414-.462 2.003-.868.938-.645 1.96-.995 3.024-1.303 1.05-.294 2.087-.827 3.151-.911 1.582-.126 3.08-.854 4.72-.546.35.07.741.07 1.063.21 1.387.602 2.535 1.499 3.095 2.97.266.686.49 1.401.798 2.059.589 1.219 1.625 1.793 2.955 1.849.364.014.742 0 1.092-.042 1.569-.252 3.165-.448 4.72-.784.924-.196 1.652-.21 2.184.742.224.407.63.757 1.022 1.023 1.303.869 1.4 2.227 1.429 3.544.014.841-.266 1.695-.546 2.508-.239.686-.799 1.275-.953 1.975-.182.799.098 1.723-.126 2.508-.364 1.274-.518 2.661-1.54 3.67-.14.14-.154.448-.182.672-.014.112.028.238.07.351 1.526 4.006 2.072 4.861 5.21 7.858.517.519 1.05 1.037 1.596 1.513.938.827 1.568 1.864 2.072 2.984.252.561.42 1.135.574 1.723.364 1.401.91 2.746 1.667 4.021.882 1.471.882 3.25 1.26 4.903.07.308-.224.686-.28 1.051-.07.476-.168.98-.084 1.443.196 1.078.42 2.171.966 3.152.238.434.476.882.588 1.344.434 2.018.392 3.951-1.372 5.366-.784.63-1.302 1.457-1.975 2.157-.714.743-1.176 1.583-1.316 2.578a13.5 13.5 0 0 1-1.456 4.525c-.42.784-.588 1.611-.617 2.479a232 232 0 0 0-.111 4.413c0 .756.182 1.471.714 2.031 1.386 1.457 2.296 3.194 2.898 5.071.645 1.99 1.555 3.853 2.465 5.73.658 1.345 1.148 2.62 1.106 4.175-.056 1.582.238 3.166.7 4.706.168.589.365 1.205.35 1.794-.055 1.751.435 3.39.729 5.071.336 1.877 1.162 3.474 2.282 4.973.588.784 1.12 1.611 1.737 2.367.644.785.952 1.667 1.148 2.648.406 1.919.924 3.81 1.848 5.562.238.434.393.896.547 1.358.364 1.093.476 2.144-.42 3.096-.35.379-.407.939-.099 1.359.673.967.701 2.059.799 3.166.028.224.14.547.308.645 1.246.742 2.52 1.485 3.823 2.157.28.14.77.126 1.064-.014 1.218-.63 2.436-1.093 3.865-.953.574.056 1.218-.154 1.778-.378 1.051-.42 2.101-.546 3.221-.532 1.204.014 2.409-.351 3.599.224.308.14.812.252 1.064.098 1.064-.602 2.507.126 3.417-1.023.182-.238.658-.336 1.008-.336 1.807 0 3.291-.784 4.761-1.709 2.101-1.317 3.795-3.082 5.644-4.693 1.218-1.065 2.324-2.213 3.193-3.53.868-1.331 1.96-2.508 2.842-3.825.476-.714 1.009-1.414 1.765-1.849 1.596-.924 2.408-2.409 2.968-4.062.393-1.163.701-2.34 1.023-3.53.168-.603.168-1.191-.168-1.78-.462-.812 0-1.443.574-1.919.84-.7 1.75-1.303 2.885-1.541 1.19-.252 2.394-.56 3.444-1.261.855-.56 1.569-1.274 1.597-2.325.028-1.247.336-2.424.588-3.628a3.8 3.8 0 0 0-.07-1.807c-.504-1.892-.966-3.797-1.456-5.688-.183-.658-.042-1.345.42-1.695 2.73-2.073 5.335-4.273 8.01-6.416.756-.588 1.68-1.009 2.59-1.345 1.05-.378 1.975-.966 2.941-1.485 2.17-1.149 3.571-2.9 4.537-5.113.448-1.037.714-2.003.546-3.18-.154-1.079.028-2.199.056-3.306.028-.855.224-1.737.07-2.564-.266-1.499-.07-2.914.294-4.342.182-.757-.056-1.499-.756-1.934-1.26-.77-1.694-1.989-2.086-3.306-.505-1.667-.238-3.39-.505-5.071-.056-.322.098-.728.267-1.037.378-.742.392-1.485-.267-2.003-1.288-1.008-1.428-2.129-.728-3.558.532-1.093.869-2.255 1.821-3.152 1.106-1.023 1.372-2.578 2.114-3.838.378-.645.77-1.205 1.471-1.569 1.204-.631 2.226-1.541 3.038-2.634 2.143-2.858 4.762-5.253 7.422-7.621 1.555-1.373 2.983-2.914 5.013-3.642.224-.084.421-.252.617-.392 4.691-3.531 8.416-7.803 10.852-13.197.896-1.989 1.751-4.02 3.193-5.743.938-1.121 1.428-2.536 1.89-3.951.631-1.905.477-3.866.659-5.799.042-.463-.939-1.093-1.387-.925-.112.042-.252.056-.336.126-1.4 1.121-3.137 1.373-4.803 1.611-2.409.35-4.859.406-7.184 1.275a2.2 2.2 0 0 1-1.092.098c-1.414-.182-2.661.28-3.879.883-.322.154-.672.28-1.022.378-.49.126-.98.028-1.401-.238a4.6 4.6 0 0 1-.84-.715c-.854-.882-1.68-1.779-2.534-2.661-.294-.309-.224-.589-.042-.939.7-1.359.7-1.695-.28-2.536-.659-.56-1.275-1.134-1.751-1.863-1.022-1.555-2.478-2.704-3.683-4.076-.714-.813-1.708-1.345-2.702-1.85-1.765-.882-3.207-2.157-3.641-4.272-.21-1.079-.574-2.116-.883-3.18-.322-1.093-.98-1.975-1.848-2.69-.756-.616-1.512-1.247-2.283-1.863a2.45 2.45 0 0 1-.952-1.919c-.028-2.102-.63-4.105-.966-6.164-.322-1.961-1.456-3.32-3.081-4.343-.308-.196-.714-.252-.98-.49-.266-.224-.462-.575-.574-.911-.126-.336-.21-.728-.168-1.078.154-1.289-.21-2.382-.994-3.405-.379-.476-.603-1.064-.925-1.583-1.4-2.297-2.884-4.552-3.473-7.242-.098-.462-.42-.883-.616-1.331-.168-.364.07-.742.518-.728.491 0 .981.168 1.401-.211.364-.336.728-.672 1.26-.644.672.042 1.106.476 1.484.967.309.392.533.812.841 1.204 1.372 1.738 2.254 3.783 3.571 5.548.756.995 1.302 2.059 1.54 3.292.14.756.616 1.331 1.386 1.583 1.513.504 2.437 1.569 2.969 3.04.168.462.378.91.616 1.331.42.784.602 1.597.532 2.479-.028.365 0 .729.014 1.107.056 1.989 1.051 3.488 2.563 4.679.574.448 1.26.784 1.82 1.233.967.784 1.765 1.695 2.087 2.956.378 1.456 1.19 2.661 2.184 3.782.813.91 1.625 1.835 2.283 2.858.812 1.246 1.372 2.605.994 4.16-.112.491-.196.967.028 1.429.798 1.667.966 3.53 1.513 5.267.224.701.462 1.387.812 2.032.336.602.868.868 1.498.882.602.028 1.218-.056 1.821-.098.882-.056 1.722-.28 2.296-.994.784-.981 1.779-1.191 2.955-1.023 1.386.182 2.717-.07 3.865-.841.742-.504 1.54-.672 2.394-.812.729-.112 1.443-.364 1.947-.939.602-.686 1.386-.994 2.212-1.246 1.289-.393 2.605-.715 3.865-1.177 1.037-.364 2.017-.869 3.025-1.317.476-.21.826-.56.924-1.065.266-1.246 1.093-1.877 2.227-2.171 1.54-.406 3.067-.855 4.635-1.107 1.092-.168 1.848-.56 2.129-1.667.168-.658.546-1.106 1.218-1.19 1.33-.169 2.254-.799 2.744-2.102.211-.574.785-.924 1.401-1.12.462-.155.98-.183 1.4-.421.266-.14.532-.518.574-.826.098-.729.014-1.471.112-2.2.07-.616.364-1.19.911-1.527 1.848-1.12 2.954-2.871 3.949-4.693.658-1.19.518-1.821-.533-2.899a11.4 11.4 0 0 1-1.792-2.312c-.392-.672-.952-1.079-1.764-1.177-.967-.126-1.961-.224-2.899-.49-.56-.154-1.12-.518-1.541-.924-.882-.883-1.498-1.934-1.638-3.222a131 131 0 0 0-.378-3.279c0-.098-.126-.266-.182-.266-.224 0-.546 0-.672.14-1.429 1.499-3.011 2.886-4.159 4.609-.924 1.373-2.087 2.018-3.683 1.863-1.246-.112-2.423-.098-3.599.393-.49.196-.952-.112-1.302-.491-.42-.448-.771-.952-.813-1.597-.084-1.218-.154-2.437-.266-3.656-.014-.224-.14-.476-.28-.658s-.364-.393-.574-.421c-.196-.028-.504.098-.616.267-.28.392-.462.854-.686 1.288-.28.533-.7.519-1.106-.028-.449-.588-.799-1.232-.897-1.989-.14-1.275-.798-2.297-1.624-3.236-.56-.644-1.176-1.247-1.778-1.849-.253-.252-.645-.434-.799-.729a74 74 0 0 1-2.03-3.908c-.14-.294-.112-.714-.07-1.065.056-.49.168-.966.336-1.415.07-.196.308-.434.504-.462.714-.098 1.442-.196 2.157-.154.714.028 1.498.084 2.086.406.476.267.742.939 1.05 1.457a173 173 0 0 1 2.633 4.427c.392.686.938 1.107 1.68 1.317.35.098.701.196 1.065.294.854.21 1.582.546 2.142 1.303.35.462.938.756 1.428 1.107 1.331.966 2.913 1.218 4.454 1.625.63.168 1.19.098 1.764-.197.868-.434 1.75-.882 2.647-1.246 1.05-.407 2.016 0 2.45.966.35.771.672 1.569.98 2.382.295.784.897 1.12 1.681 1.191 3.417.294 6.75 1.148 10.11 1.751 1.233.21 2.381.336 3.627.21 2.045-.21 4.089-.813 6.19-.252.434.112.966-.07 1.428-.197 1.442-.378 2.913-.364 4.383-.266.49.028.924.266 1.162.771.211.448.519.826.939 1.092.546.337.966.813 1.092 1.415.252 1.219.91 1.906 2.157 2.158.84.168 1.498.742 2.016 1.485.896 1.302 2.227 1.863 3.767 1.989.322.028.658.042.98.056.014-.028.042-.042.056-.07l.154-.084-.07.154h-.126c-.588.84-1.288 1.317-2.38.854-.14-.056-.491.085-.589.239s-.084.518.042.644c1.051 1.163 2.087 2.339 3.207 3.418 2.045 1.961 2.983 2.003 5.434.49.952-.588 1.596-1.358 1.722-2.493a.1.1 0 0 1-.056-.028l-.028-.196.098.112s-.014.07-.028.112c.098.056.224.098.252.168.518 1.611 1.12 3.208.98 4.959-.056.729-.098 1.527.14 2.185.616 1.752.827 3.573 1.233 5.366.406 1.779 1.47 3.376 1.47 5.281 0 .336.238.687.406 1.023.56 1.078 1.064 2.213 1.751 3.236.854 1.247 1.316 2.619 1.792 4.006.238.701.504 1.387.672 2.102.336 1.471.952 2.745 2.017 3.852.588.602 1.12 1.345 1.4 2.129.63 1.723 1.582 3.321 1.764 5.212.112 1.12.659 2.101 1.317 2.998.28.392.644.742 1.008 1.064.882.757 2.254.603 2.927-.322.21-.294.364-.63.546-.953.294-.56.714-1.022 1.316-1.218.798-.266 1.092-.855 1.358-1.569.337-.939.925-1.709 1.863-2.172.602-.294.798-.91.728-1.555-.056-.616-.154-1.218-.252-1.821-.126-.742-.098-1.457.252-2.157.224-.434.392-.897.602-1.345.49-1.051.56-2.087.112-3.194-.224-.546-.28-1.191-.294-1.793-.014-1.345 0-2.69.084-4.035.042-.812.504-1.33 1.345-1.499.35-.07.84-.14.98-.364.658-1.008 1.652-1.359 2.702-1.695.463-.154.785-.588.939-1.079.182-.588.294-1.26.882-1.555 1.568-.798 2.535-2.283 3.935-3.278.602-.434 1.064-.994 1.47-1.625.462-.714 1.078-1.316 1.611-2.003.392-.504.896-.742 1.484-.98 2.03-.869 3.445-2.256 3.557-4.651.028-.659.518-1.065 1.092-1.373.896-.491 1.863-.561 2.857-.505 2.268.141 4.397-.308 6.287-1.611.813-.546 1.919-.406 2.647-1.176.028-.042.504.182.574.364.266.672.462 1.373.658 2.087.7 2.452 1.919 4.497 4.299 5.674.322.168.658.322.981.504.518.294.63.729.434 1.541-.252 1.121-.126 1.513.98 1.989.714.309 1.274.701 1.582 1.415.042.112.112.21.154.336.729 1.583 1.093 3.208.504 4.96-.196.56-.112 1.204-.098 1.821 0 .504.743 1.246 1.191 1.232 1.358-.028 2.702-.07 3.879-.882a48 48 0 0 1 2.786-1.765z" fill="url(#a)"/><defs><linearGradient id="a" x1="-186.232" y1="-215.315" x2="462.463" y2="372.415" gradientUnits="userSpaceOnUse"><stop stop-color="#E18688"/><stop offset=".15" stop-color="#E28385"/><stop offset=".36" stop-color="#E67C7E"/><stop offset=".6" stop-color="#EC7173"/><stop offset=".87" stop-color="#F5575A"/><stop offset="1" stop-color="#FA4245"/></linearGradient></defs></svg>